<svg width="113" height="150" viewBox="0 0 113 150" fill="none" xmlns="http://www.w3.org/2000/svg">
<path d="M60.9375 60.9375C60.9375 58.3487 58.8388 56.25 56.25 56.25C53.6612 56.25 51.5625 58.3487 51.5625 60.9375V96.4959L40.8146 85.7479C38.984 83.9174 36.016 83.9174 34.1854 85.7479C32.3549 87.5785 32.3549 90.5465 34.1854 92.3771L52.9354 111.127C54.766 112.958 57.734 112.958 59.5646 111.127L78.3146 92.3771C80.1451 90.5465 80.1451 87.5785 78.3146 85.7479C76.484 83.9174 73.516 83.9174 71.6854 85.7479L60.9375 96.4959V60.9375Z" fill="black"/>
<path d="M112.5 131.25V42.1875L70.3125 0H18.75C8.39466 0 0 8.39466 0 18.75V131.25C0 141.605 8.39467 150 18.75 150H93.75C104.105 150 112.5 141.605 112.5 131.25ZM70.3125 28.125C70.3125 35.8915 76.6085 42.1875 84.375 42.1875H103.125V131.25C103.125 136.428 98.9277 140.625 93.75 140.625H18.75C13.5723 140.625 9.375 136.428 9.375 131.25V18.75C9.375 13.5723 13.5723 9.375 18.75 9.375H70.3125V28.125Z" fill="black"/>
</svg>
