<?xml version="1.0" encoding="utf-8"?>
<!-- Generator: Adobe Illustrator 24.1.2, SVG Export Plug-In . SVG Version: 6.00 Build 0)  -->
<svg version="1.1" id="Layer_1" xmlns="http://www.w3.org/2000/svg" xmlns:xlink="http://www.w3.org/1999/xlink" x="0px" y="0px"
	 viewBox="0 0 246.4 83.3" style="enable-background:new 0 0 246.4 83.3;" xml:space="preserve">
<style type="text/css">
	.st0{fill:none;stroke:#000000;stroke-width:4;stroke-miterlimit:10;}
</style>
<g id="Layer_2_1_">
	<g id="Camada_1">
		<path class="st0" d="M12.7,2h220.9c5.9,0,10.7,4.8,10.7,10.7v57.9c0,5.9-4.8,10.7-10.7,10.7H12.7C6.8,81.3,2,76.5,2,70.6V12.7
			C2,6.8,6.8,2,12.7,2z"/>
		<path d="M65.2,54.4c-1,2.3-2.2,4.5-3.5,6.6c-2.3,3.5-5.5,7.9-9.6,7.9c-3.6,0-4.5-2.3-9.3-2.3S36.8,69,33.3,69c-4,0-7.1-4-9.4-7.5
			c-6.4-9.9-7.1-21.4-3.1-27.5c2.8-4.4,7.3-6.9,11.5-6.9s6.9,2.3,10.5,2.3s5.5-2.4,10.4-2.4c4.2,0.2,8,2.2,10.5,5.5
			C54.4,37.7,55.9,50.9,65.2,54.4z"/>
		<path d="M49.4,23.2c2-2.5,3-5.7,2.6-8.9c-3.3,0.4-6.2,2-8.3,4.5c-1.8,2.2-3.3,5.5-2.7,8.6C44.3,27.4,47.4,25.8,49.4,23.2z"/>
		<path d="M84.8,33.9L75.6,61h4.2l2.8-8.3h8.9l2.8,8.3h4.3l-9.3-27.1H84.8z M87,38.3c0.3,1.2,0.6,2.5,1.1,3.8l2.5,7.2h-7.1l2.5-7.3
			C86.3,40.9,86.7,39.7,87,38.3z"/>
		<path d="M110.7,40.9c-2.6-0.1-5,1.1-6.5,3.1l-0.1-2.7h-3.8v0.3c0.1,1.7,0.2,3.5,0.2,6.2v21h4.1v-9.8c1.4,1.6,3.5,2.5,5.6,2.4
			c2.4,0,4.6-0.9,6.2-2.6c1.9-2.2,2.9-5,2.8-7.9c0.1-2.6-0.8-5.2-2.4-7.2C115.2,41.9,113,40.9,110.7,40.9z M109.7,44.3
			c3.7,0,5.3,3.4,5.3,6.8c0,4.3-2.1,7-5.5,7c-2.8,0-5-2.2-5-5c0-0.1,0-0.1,0-0.2v-3.3c0-0.3,0.1-0.7,0.1-1c0-0.1,0-0.2,0.1-0.3
			C105.2,46,107.3,44.4,109.7,44.3L109.7,44.3z"/>
		<path d="M131.8,40.9c-2.6-0.1-5,1.1-6.5,3.1l-0.2-2.7h-3.8v0.3c0.1,1.7,0.2,3.5,0.2,6.2v21h4.1v-9.8c1.4,1.6,3.5,2.5,5.6,2.4
			c2.4,0,4.6-0.9,6.2-2.6c1.9-2.2,2.9-5,2.8-7.9c0.1-2.6-0.8-5.2-2.4-7.2C136.4,41.9,134.2,40.9,131.8,40.9z M130.8,44.3
			c3.7,0,5.3,3.4,5.3,6.8c0,4.3-2.1,7-5.5,7c-2.3,0-4.3-1.6-4.8-3.8c-0.1-0.4-0.1-0.9-0.1-1.3v-3.3c0-0.3,0.1-0.7,0.1-1l0.1-0.3
			C126.4,46,128.4,44.4,130.8,44.3L130.8,44.3z"/>
		<path d="M158.4,45.4c-3.8-1.5-5.1-2.7-5.1-4.8c0-1.8,1.4-3.7,4.7-3.7c1.7,0,3.4,0.4,4.8,1.2l0.4,0.2l1.2-3.4l-0.2-0.1
			c-1.8-1-3.9-1.4-6-1.3c-5.3,0-8.9,3.1-8.9,7.5c0,3.6,2.3,6.1,7.2,7.9c3.5,1.3,4.8,2.6,4.8,4.9c0,2.6-2,4.2-5.2,4.2
			c-2.1,0-4.2-0.6-5.9-1.7l-0.4-0.2l-1.1,3.5l0.2,0.1c2.1,1.2,4.5,1.8,6.9,1.8c7.1,0,9.6-4.3,9.6-8S163.3,47.3,158.4,45.4z"/>
		<path d="M172.7,36.7l-4,1.3v3.4h-2.9v3.3h2.9v10.1c0,2.4,0.5,4.1,1.4,5.2c1.1,1.1,2.5,1.6,4,1.6c1.1,0,2.2-0.1,3.2-0.5l0.2-0.1
			l-0.2-3.3l-0.4,0.1c-0.6,0.2-1.3,0.3-1.9,0.3c-1.6,0-2.3-1-2.3-3.4v-10h5v-3.3h-5L172.7,36.7z"/>
		<path d="M187.8,40.9c-5.8,0-9.8,4.3-9.8,10.4c0,6,3.9,10.1,9.5,10.1l0,0c4.7,0,9.8-3.3,9.8-10.5c0.1-2.7-0.8-5.3-2.6-7.3
			C192.9,41.9,190.4,40.8,187.8,40.9z M187.7,44.2c3.7,0,5.4,3.6,5.4,7c0,4.1-2.3,7.1-5.5,7.1l0,0c-3.1,0-5.4-2.9-5.4-7
			C182.2,47.7,183.9,44.2,187.7,44.2z"/>
		<path d="M209.9,41.1l-0.3-0.1c-0.3-0.1-0.7-0.1-1-0.1c-2.2,0.1-4.2,1.3-5.2,3.3l-0.1-2.9h-3.7v0.3c0.1,1.6,0.1,3.5,0.1,5.9V61h4.1
			V50.6c0-0.5,0-1.1,0.1-1.6c0.5-2.5,2.2-4.1,4.3-4.1c0.4,0,0.8,0,1.1,0.1h0.4L209.9,41.1z"/>
		<path d="M219.2,40.9c-5.5,0-9.3,4.4-9.3,10.6c0,6,3.8,9.9,9.7,9.9c2.2,0,4.5-0.4,6.5-1.3l0.3-0.1l-0.8-3.1l-0.3,0.1
			c-1.6,0.7-3.4,1-5.1,0.9c-1.8,0-5.9-0.6-6.2-6h13.3l0.1-0.3c0.1-0.6,0.1-1.1,0.1-1.7C227.3,45.9,225.2,40.9,219.2,40.9z M218.9,44
			c1.1,0,2.2,0.4,3,1.2c0.9,1.1,1.4,2.4,1.4,3.8H214C214.3,46.6,215.8,44,218.9,44z"/>
		<path d="M75.6,15.3c1.3-0.2,2.7-0.3,4-0.3c2.7,0,4.5,0.5,5.8,1.6c1.4,1.1,2.1,2.9,2,4.6c0.1,1.9-0.7,3.7-2.1,5
			c-1.3,1.2-3.6,1.9-6.3,1.9c-1.1,0-2.3,0-3.4-0.1V15.3z M77.5,26.7c0.6,0.1,1.2,0.1,1.9,0.1c4,0,6.1-2,6.1-5.5c0-3.1-1.9-5-5.8-5
			c-0.7,0-1.4,0-2.2,0.2L77.5,26.7z"/>
		<path d="M94,28.2c-2.6,0.2-4.7-1.8-4.9-4.3c0-0.1,0-0.3,0-0.4c-0.1-2.6,2-4.8,4.6-4.9c0.2,0,0.3,0,0.5,0c2.5-0.2,4.7,1.7,4.9,4.2
			c0,0.2,0,0.3,0,0.5c0.1,2.6-2,4.8-4.6,4.9C94.3,28.2,94.2,28.2,94,28.2z M94.1,26.9c1.8,0,3.1-1.5,3.1-3.6c0-1.6-0.9-3.5-3.1-3.5
			S91,21.6,91,23.4C91,25.4,92.3,26.9,94.1,26.9L94.1,26.9z"/>
		<path d="M102.1,18.8l1.4,4.7c0.3,1,0.6,2,0.7,3h0.1c0.2-0.9,0.6-1.9,0.9-2.9l1.7-4.7h1.6l1.6,4.6c0.4,1.1,0.7,2.1,0.9,3h0.1
			c0.2-1,0.5-2,0.8-3l1.5-4.6h1.8l-3.4,9.3H110l-1.6-4.4c-0.4-1-0.7-2-0.9-3l0,0c-0.2,1-0.6,2.1-0.9,3.1l-1.6,4.3h-1.7l-3.1-9.2
			L102.1,18.8z"/>
		<path d="M116.9,21.3c0-1,0-1.7-0.1-2.5h1.7l0.1,1.5l0,0c0.8-1.1,2.1-1.8,3.4-1.7c1.4,0,3.6,0.8,3.6,3.9V28h-1.9v-5.3
			c0-1.5-0.6-2.8-2.4-2.8c-1.1,0-2.1,0.7-2.5,1.7c-0.1,0.2-0.1,0.5-0.1,0.8V28h-1.9L116.9,21.3z"/>
		<path d="M128.7,14.4h1.9V28h-1.9V14.4z"/>
		<path d="M137.8,28.2c-2.6,0.2-4.8-1.8-4.9-4.3c0-0.1,0-0.3,0-0.4c-0.1-2.6,2-4.8,4.6-4.9c0.2,0,0.3,0,0.5,0
			c2.5-0.2,4.7,1.7,4.9,4.2c0,0.2,0,0.3,0,0.5c0.1,2.6-2,4.8-4.6,4.9C138.2,28.2,138,28.2,137.8,28.2L137.8,28.2z M137.9,26.9
			c1.8,0,3.1-1.5,3.1-3.6c0-1.6-0.9-3.5-3.1-3.5s-3.1,1.8-3.1,3.6C134.8,25.4,136.1,26.9,137.9,26.9L137.9,26.9z"/>
		<path d="M152.5,25.8c0,0.7,0,1.5,0.1,2.2H151l-0.2-1.2h-0.1c-0.8,0.9-1.9,1.4-3.1,1.4c-2.1,0-3.1-1.3-3.1-2.6
			c0-2.2,2.2-3.5,6.2-3.4v-0.2c0-0.8-0.2-2.1-2.3-2.1c-0.9,0-1.9,0.2-2.7,0.7l-0.4-1.1c1-0.5,2.2-0.8,3.4-0.8c3.1,0,3.9,1.9,3.9,3.8
			L152.5,25.8z M150.7,23.3c-2,0-4.4,0.3-4.4,2.1c0,0.9,0.6,1.6,1.5,1.6c0.1,0,0.2,0,0.2,0c1.1,0.1,2.1-0.6,2.5-1.5
			c0.1-0.2,0.1-0.3,0.1-0.5V23.3z"/>
		<path d="M164.4,14.4v11.2c0,0.8,0,1.8,0.1,2.4h-1.7l-0.1-1.6l0,0c-0.7,1.2-2.1,1.9-3.5,1.8c-2.4,0-4.4-2-4.4-4.4
			c0-0.1,0-0.2,0-0.3c-0.2-2.5,1.7-4.8,4.2-5c0.1,0,0.3,0,0.4,0c1.2-0.1,2.4,0.4,3.1,1.4l0,0v-5.5L164.4,14.4z M162.5,22.5
			c0-0.2,0-0.5-0.1-0.7c-0.3-1.2-1.5-2-2.7-1.9c-1.9,0-3.1,1.5-3.1,3.5s1,3.4,3,3.4c1.3,0,2.4-0.8,2.7-2c0.1-0.2,0.1-0.5,0.1-0.7
			L162.5,22.5z"/>
		<path d="M176.1,28.2c-2.6,0.2-4.8-1.8-4.9-4.3c0-0.1,0-0.3,0-0.4c-0.1-2.6,2-4.8,4.6-4.9c0.2,0,0.3,0,0.5,0
			c2.5-0.2,4.7,1.7,4.9,4.2c0,0.2,0,0.3,0,0.5c0.1,2.6-2,4.8-4.6,4.9C176.5,28.2,176.3,28.2,176.1,28.2L176.1,28.2z M176.2,26.9
			c1.8,0,3.1-1.5,3.1-3.6c0-1.6-0.9-3.5-3.1-3.5s-3.1,1.8-3.1,3.6C173.1,25.4,174.4,26.9,176.2,26.9L176.2,26.9z"/>
		<path d="M183.6,21.3c0-1,0-1.7-0.1-2.5h1.7l0.1,1.5h0.1c0.7-1.1,2-1.8,3.4-1.7c1.4,0,3.6,0.8,3.6,3.9V28h-1.9v-5.3
			c0-1.5-0.6-2.8-2.4-2.8c-1.1,0-2.1,0.7-2.5,1.7c-0.1,0.3-0.1,0.5-0.1,0.8V28h-1.9V21.3z"/>
		<path d="M202.1,16.5v2.2h2.7V20h-2.7v5c0,1.1,0.4,1.8,1.4,1.8c0.4,0,0.7,0,1.1-0.1l0.1,1.3c-0.5,0.2-1.1,0.2-1.7,0.2
			c-0.7,0-1.5-0.2-2-0.7c-0.5-0.7-0.8-1.6-0.7-2.4V20h-1.6v-1.3h1.6v-1.7L202.1,16.5z"/>
		<path d="M206.9,14.4h1.9v5.8l0,0c0.3-0.5,0.8-0.9,1.4-1.2c0.6-0.3,1.2-0.5,1.9-0.5c1.4,0,3.6,0.8,3.6,4V28h-1.9v-5.3
			c0-1.5-0.6-2.8-2.4-2.8c-1.1,0-2.1,0.7-2.5,1.7c-0.1,0.3-0.1,0.5-0.1,0.8V28h-1.9L206.9,14.4z"/>
		<path d="M219.7,23.7c0,2.3,1.6,3.2,3.5,3.2c1,0,1.9-0.1,2.8-0.5l0.3,1.2c-1.1,0.4-2.3,0.6-3.4,0.6c-3.1,0-5.1-1.9-5.1-4.6
			c-0.2-2.6,1.8-4.8,4.4-5c0.1,0,0.3,0,0.4,0c2.2-0.1,4.1,1.5,4.3,3.7c0,0.2,0,0.4,0,0.6c0,0.3,0,0.5-0.1,0.8L219.7,23.7z
			 M225.2,22.5c0.1-1.4-0.9-2.6-2.2-2.7c-0.1,0-0.2,0-0.3,0c-1.5,0-2.8,1.2-2.9,2.7H225.2z"/>
	</g>
</g>
</svg>
