<svg xmlns="http://www.w3.org/2000/svg" viewBox="0 0 246.35 83.28"><defs><style>.cls-1{fill:none;stroke:#fff;stroke-miterlimit:10;stroke-width:4px;}.cls-2{fill:#fff;}</style></defs><g id="Layer_2" data-name="Layer 2"><g id="Camada_1" data-name="Camada 1"><rect class="cls-1" x="2" y="2" width="242.35" height="79.28" rx="10.71"/><path class="cls-2" d="M65.2,54.4A39.2,39.2,0,0,1,61.65,61c-2.3,3.51-5.55,7.88-9.58,7.91-3.58,0-4.49-2.32-9.35-2.3S36.85,69,33.28,69c-4,0-7.11-4-9.41-7.49C17.42,51.65,16.75,40.13,20.72,34c2.83-4.35,7.29-6.89,11.48-6.89s6.94,2.34,10.47,2.34,5.51-2.35,10.44-2.35a13.94,13.94,0,0,1,10.5,5.54C54.38,37.71,55.88,50.88,65.2,54.4Z"/><path class="cls-2" d="M49.37,23.19A12,12,0,0,0,52,14.32a13,13,0,0,0-8.35,4.5C41.86,21,40.36,24.29,41,27.47A10.91,10.91,0,0,0,49.37,23.19Z"/><path class="cls-2" d="M84.83,33.86,75.6,61h4.23l2.76-8.34h8.94L94.36,61h4.35L89.43,33.86ZM87,38.33c.31,1.22.64,2.48,1.08,3.84l2.48,7.2H83.51L86,42.12C86.34,40.94,86.69,39.67,87,38.33Z"/><path class="cls-2" d="M110.65,40.91a7.67,7.67,0,0,0-6.53,3.14L104,41.34h-3.76l0,.35c.11,1.68.16,3.54.16,6.2v21h4.11V59.06a7.22,7.22,0,0,0,5.62,2.41,8.48,8.48,0,0,0,6.23-2.64,11.21,11.21,0,0,0,2.76-7.91,10.94,10.94,0,0,0-2.39-7.22A7.84,7.84,0,0,0,110.65,40.91Zm-1,3.4c3.66,0,5.3,3.4,5.3,6.76,0,4.34-2.09,7-5.46,7a5,5,0,0,1-5-5.15v-3.3a6.62,6.62,0,0,1,.13-1c0-.11,0-.22.06-.33A5.22,5.22,0,0,1,109.63,44.31Z"/><path class="cls-2" d="M131.83,40.91a7.69,7.69,0,0,0-6.54,3.14l-.16-2.71h-3.76l0,.35c.11,1.68.16,3.54.16,6.2v21h4.11V59.06a7.19,7.19,0,0,0,5.62,2.41,8.51,8.51,0,0,0,6.23-2.64,11.25,11.25,0,0,0,2.75-7.91,10.94,10.94,0,0,0-2.39-7.22A7.82,7.82,0,0,0,131.83,40.91Zm-1,3.4c3.67,0,5.31,3.4,5.31,6.76,0,4.34-2.1,7-5.46,7a5,5,0,0,1-4.85-3.82,5.47,5.47,0,0,1-.14-1.33v-3.3a5.59,5.59,0,0,1,.13-1l.06-.33A5.21,5.21,0,0,1,130.8,44.31Z"/><path class="cls-2" d="M158.35,45.38c-3.83-1.49-5.06-2.65-5.06-4.81,0-1.82,1.44-3.66,4.67-3.66a9.3,9.3,0,0,1,4.83,1.22l.35.21,1.16-3.43-.23-.13a11.86,11.86,0,0,0-6-1.35c-5.25,0-8.91,3.1-8.91,7.53,0,3.57,2.3,6.07,7.22,7.86,3.49,1.3,4.79,2.64,4.79,4.93,0,2.59-2,4.2-5.23,4.2A11.26,11.26,0,0,1,150,56.27l-.35-.23-1.11,3.51.21.14a14.13,14.13,0,0,0,6.95,1.78c7.06,0,9.57-4.3,9.57-8S163.28,47.32,158.35,45.38Z"/><path class="cls-2" d="M172.69,36.66l-4,1.27v3.41h-2.95v3.29h2.95V54.7c0,2.43.46,4.13,1.42,5.21a5.26,5.26,0,0,0,4,1.56,9.55,9.55,0,0,0,3.18-.49l.23-.08-.2-3.29-.39.12A6.24,6.24,0,0,1,175,58c-1.59,0-2.27-1-2.27-3.37V44.63h5V41.34h-5Z"/><path class="cls-2" d="M187.84,40.91c-5.75,0-9.77,4.29-9.77,10.44,0,6,3.89,10.12,9.46,10.12h0c4.71,0,9.78-3.27,9.78-10.47a10.38,10.38,0,0,0-2.63-7.28A9.13,9.13,0,0,0,187.84,40.91Zm-.12,3.25c3.7,0,5.39,3.6,5.39,7,0,4.13-2.3,7.12-5.47,7.12h0c-3.11,0-5.38-2.94-5.38-7C182.22,47.71,183.92,44.16,187.72,44.16Z"/><path class="cls-2" d="M209.93,41.1l-.25-.06a4,4,0,0,0-1-.13,5.89,5.89,0,0,0-5.16,3.31l-.12-2.88h-3.69l0,.35c.11,1.63.15,3.45.15,5.92l0,13.43H204V50.56a11.13,11.13,0,0,1,.11-1.59c.46-2.52,2.16-4.14,4.33-4.14.42,0,.75,0,1.1.06l.44,0Z"/><path class="cls-2" d="M219.17,40.87c-5.47,0-9.29,4.37-9.29,10.64,0,6,3.8,9.93,9.69,9.93a15.78,15.78,0,0,0,6.51-1.25l.25-.11-.8-3.07-.34.14a12.66,12.66,0,0,1-5.15.92c-1.79,0-5.91-.59-6.16-6l13.27,0,.06-.26a9.55,9.55,0,0,0,.12-1.72C227.33,45.88,225.19,40.87,219.17,40.87ZM218.9,44a4.08,4.08,0,0,1,3,1.15A5.82,5.82,0,0,1,223.33,49H214C214.34,46.6,215.82,44,218.9,44Z"/><path class="cls-2" d="M75.6,15.3a30.4,30.4,0,0,1,4-.27c2.65,0,4.53.54,5.79,1.59a5.62,5.62,0,0,1,2,4.63,6.49,6.49,0,0,1-2.06,5C84,27.46,81.75,28.11,79,28.11A27.46,27.46,0,0,1,75.6,28Zm1.87,11.39a12.56,12.56,0,0,0,1.86.08c4,0,6.09-2,6.09-5.46,0-3.07-1.89-5-5.79-5a12.16,12.16,0,0,0-2.16.17Z"/><path class="cls-2" d="M94,28.2a4.63,4.63,0,0,1-4.91-4.75,4.76,4.76,0,0,1,5.08-4.91,4.6,4.6,0,0,1,4.94,4.74A4.78,4.78,0,0,1,94,28.2Zm.07-1.26c1.78,0,3.12-1.51,3.12-3.61,0-1.56-.87-3.53-3.08-3.53S91,21.64,91,23.39c0,2,1.27,3.55,3.08,3.55Z"/><path class="cls-2" d="M102.05,18.75l1.38,4.68c.27,1,.55,2,.74,3h.06c.23-.94.57-1.93.91-2.94l1.68-4.7h1.57L110,23.37c.38,1.09.68,2.08.91,3H111a25.39,25.39,0,0,1,.79-3l1.46-4.64h1.85L111.74,28H110l-1.57-4.41a31.5,31.5,0,0,1-.91-3h0a24.51,24.51,0,0,1-.94,3.07L104.93,28h-1.7l-3.09-9.24Z"/><path class="cls-2" d="M116.91,21.25c0-1,0-1.73-.08-2.5h1.65l.11,1.51h0A3.89,3.89,0,0,1,122,18.54c1.42,0,3.63.77,3.63,3.94V28h-1.87V22.67c0-1.49-.61-2.75-2.37-2.75a2.66,2.66,0,0,0-2.5,1.72,2.13,2.13,0,0,0-.13.78V28h-1.87Z"/><path class="cls-2" d="M128.68,14.44h1.87V28h-1.87Z"/><path class="cls-2" d="M137.82,28.2a4.64,4.64,0,0,1-4.92-4.75A4.77,4.77,0,0,1,138,18.54a4.6,4.6,0,0,1,4.94,4.74,4.78,4.78,0,0,1-5.09,4.92Zm.06-1.26c1.79,0,3.12-1.51,3.12-3.61,0-1.56-.87-3.53-3.07-3.53s-3.14,1.84-3.14,3.59c0,2,1.27,3.55,3.07,3.55Z"/><path class="cls-2" d="M152.52,25.78a13.47,13.47,0,0,0,.15,2.21H151l-.17-1.16h-.06a4,4,0,0,1-3.14,1.37c-2.08,0-3.14-1.32-3.14-2.65,0-2.23,2.21-3.46,6.17-3.44v-.19c0-.76-.23-2.15-2.33-2.14a5.32,5.32,0,0,0-2.69.69l-.43-1.12a7.2,7.2,0,0,1,3.4-.81c3.15,0,3.92,1.93,3.92,3.78Zm-1.82-2.5c-2,0-4.35.28-4.35,2.08a1.56,1.56,0,0,0,1.74,1.6,2.59,2.59,0,0,0,2.52-1.55,1.64,1.64,0,0,0,.09-.53Z"/><path class="cls-2" d="M164.37,14.44V25.6c0,.83,0,1.76.09,2.39h-1.68l-.08-1.6h0a3.86,3.86,0,0,1-3.48,1.81,4.4,4.4,0,0,1-4.41-4.69,4.6,4.6,0,0,1,4.6-5,3.5,3.5,0,0,1,3.09,1.4h0v-5.5Zm-1.86,8.07a2.54,2.54,0,0,0-.09-.72,2.69,2.69,0,0,0-2.69-1.93c-1.93,0-3.08,1.53-3.08,3.55s1,3.44,3,3.44a2.78,2.78,0,0,0,2.73-2,2.41,2.41,0,0,0,.09-.72Z"/><path class="cls-2" d="M176.14,28.2a4.63,4.63,0,0,1-4.92-4.75,4.77,4.77,0,0,1,5.09-4.91,4.6,4.6,0,0,1,4.94,4.74,4.78,4.78,0,0,1-5.09,4.92Zm.07-1.26c1.78,0,3.11-1.51,3.11-3.61,0-1.56-.87-3.53-3.07-3.53s-3.14,1.84-3.14,3.59c0,2,1.27,3.55,3.07,3.55Z"/><path class="cls-2" d="M183.61,21.25c0-1,0-1.73-.09-2.5h1.66l.1,1.51h.05a3.86,3.86,0,0,1,3.39-1.72c1.42,0,3.62.77,3.62,3.94V28h-1.86V22.67c0-1.49-.62-2.75-2.38-2.75a2.66,2.66,0,0,0-2.5,1.72,2.36,2.36,0,0,0-.13.78V28h-1.86Z"/><path class="cls-2" d="M202.12,16.54v2.21h2.67V20h-2.67v5c0,1.15.36,1.8,1.4,1.8a3.64,3.64,0,0,0,1.08-.12l.09,1.28a5.47,5.47,0,0,1-1.66.23,2.8,2.8,0,0,1-2-.71,3.33,3.33,0,0,1-.72-2.42V20h-1.59V18.75h1.59V17.06Z"/><path class="cls-2" d="M206.89,14.44h1.87V20.2h0A3.23,3.23,0,0,1,210.14,19a4,4,0,0,1,1.91-.48c1.37,0,3.58.77,3.58,3.95V28h-1.87v-5.3c0-1.51-.61-2.75-2.37-2.75a2.67,2.67,0,0,0-2.5,1.68,1.77,1.77,0,0,0-.13.8V28h-1.87Z"/><path class="cls-2" d="M219.72,23.66c0,2.27,1.63,3.21,3.5,3.21a7.92,7.92,0,0,0,2.84-.46l.34,1.18a9.1,9.1,0,0,1-3.43.59c-3.14,0-5.05-1.89-5.05-4.65a4.7,4.7,0,0,1,4.83-5A4,4,0,0,1,227,22.88a4.13,4.13,0,0,1-.06.8Zm5.45-1.2a2.48,2.48,0,0,0-2.56-2.73,2.91,2.91,0,0,0-2.87,2.73Z"/></g></g></svg>