<?xml version="1.0" encoding="utf-8"?>
<!-- Generator: Adobe Illustrator 24.1.2, SVG Export Plug-In . SVG Version: 6.00 Build 0)  -->
<svg version="1.1" id="Layer_1" xmlns="http://www.w3.org/2000/svg" xmlns:xlink="http://www.w3.org/1999/xlink" x="0px" y="0px"
	 viewBox="0 0 245.5 83" style="enable-background:new 0 0 245.5 83;" xml:space="preserve">
<style type="text/css">
	.st0{fill:none;stroke:#000000;stroke-width:4;stroke-miterlimit:10;}
	.st1{clip-path:url(#SVGID_2_);}
	.st2{fill:url(#SVGID_3_);}
	.st3{fill:url(#SVGID_4_);}
	.st4{fill:url(#SVGID_5_);}
	.st5{fill:url(#SVGID_6_);}
</style>
<g id="Layer_2_1_">
	<g id="Camada_1">
		<path class="st0" d="M12.7,2h220.1c5.9,0,10.7,4.8,10.7,10.7v57.6c0,5.9-4.8,10.7-10.7,10.7H12.7C6.8,81,2,76.2,2,70.3V12.7
			C2,6.8,6.8,2,12.7,2z"/>
		<g id="PLAY">
			<g>
				<defs>
					<path id="SVGID_1_" d="M54.3,36.8l-10.9-6.3l-21-12.1c-1.2-0.7-2.3-0.3-2.3,1.1v49.4c0,1.1,0.8,1.5,1.9,0.9l21.5-12.4l10.9-6.3
						l10.5-6c1.2-0.7,1.1-1.7,0.1-2.2S54.3,36.8,54.3,36.8z"/>
				</defs>
				<clipPath id="SVGID_2_">
					<use xlink:href="#SVGID_1_"  style="overflow:visible;"/>
				</clipPath>
				<g class="st1">
					
						<linearGradient id="SVGID_3_" gradientUnits="userSpaceOnUse" x1="33.6" y1="66.79" x2="33.6" y2="13.29" gradientTransform="matrix(1 0 0 -1 0 84)">
						<stop  offset="0" style="stop-color:#207AB0"/>
						<stop  offset="0.32" style="stop-color:#4A98B5"/>
						<stop  offset="0.78" style="stop-color:#81C0BB"/>
						<stop  offset="1" style="stop-color:#97CFBE"/>
					</linearGradient>
					<polygon class="st2" points="20.1,17.2 20.1,44 20.1,70.7 47.1,44 					"/>
					
						<linearGradient id="SVGID_4_" gradientUnits="userSpaceOnUse" x1="20.11" y1="53.51" x2="54.34" y2="53.51" gradientTransform="matrix(1 0 0 -1 0 84)">
						<stop  offset="0" style="stop-color:#59BBAA"/>
						<stop  offset="1" style="stop-color:#E6E89A"/>
					</linearGradient>
					<polygon class="st3" points="54.3,36.8 43.5,30.5 20.1,17 20.1,17.2 47.1,44 					"/>
					
						<linearGradient id="SVGID_5_" gradientUnits="userSpaceOnUse" x1="37.225" y1="40.04" x2="37.225" y2="13.1" gradientTransform="matrix(1 0 0 -1 0 84)">
						<stop  offset="0" style="stop-color:#E43332"/>
						<stop  offset="0.16" style="stop-color:#D43643"/>
						<stop  offset="0.73" style="stop-color:#A23E7A"/>
						<stop  offset="1" style="stop-color:#8E4190"/>
					</linearGradient>
					<polygon class="st4" points="20.1,70.7 20.1,70.9 43.5,57.4 54.3,51.1 47.1,44 					"/>
					
						<linearGradient id="SVGID_6_" gradientUnits="userSpaceOnUse" x1="56.935" y1="47.23" x2="56.935" y2="32.86" gradientTransform="matrix(1 0 0 -1 0 84)">
						<stop  offset="0" style="stop-color:#F08779"/>
						<stop  offset="0.63" style="stop-color:#F8B474"/>
						<stop  offset="1" style="stop-color:#FCCA72"/>
					</linearGradient>
					<polygon class="st5" points="54.3,36.8 47.1,44 54.3,51.1 66.8,44 					"/>
				</g>
			</g>
		</g>
		<path d="M190,54.4c-1,0-1.9-0.2-2.8-0.6c-0.8-0.4-1.6-1-2.1-1.7h-0.2c0.1,0.9,0.2,1.7,0.2,2.6v6.4h-2.4V38.6h1.9l0.3,2.1h0.1
			c0.5-0.8,1.3-1.4,2.1-1.8c0.9-0.4,1.8-0.6,2.8-0.6c1.8-0.1,3.6,0.7,4.8,2.1c1.2,1.7,1.8,3.8,1.7,5.9c0.1,2.1-0.5,4.3-1.7,6
			C193.6,53.7,191.8,54.5,190,54.4z M189.7,40.3c-1.3-0.1-2.6,0.4-3.4,1.3c-0.8,1.2-1.2,2.7-1.1,4.2v0.5c0,2.2,0.4,3.8,1.1,4.7
			c0.9,1,2.2,1.5,3.5,1.4c1.3,0,2.5-0.6,3.2-1.6c0.8-1.3,1.2-2.9,1.1-4.5c0.1-1.6-0.3-3.1-1.1-4.5C192.1,40.8,190.9,40.2,189.7,40.3
			L189.7,40.3z"/>
		<path d="M201.9,54.1h-2.4V32h2.4V54.1z"/>
		<path d="M215.4,54.1l-0.4-2.2h-0.1c-0.6,0.8-1.4,1.5-2.3,2c-0.9,0.4-1.9,0.5-2.9,0.5c-1.3,0.1-2.6-0.4-3.6-1.2
			c-0.9-0.9-1.4-2.1-1.3-3.4c0-3.1,2.5-4.8,7.5-4.9l2.6-0.1v-1c0.1-1-0.2-1.9-0.8-2.7c-0.7-0.6-1.6-1-2.5-0.9
			c-1.5,0.1-3,0.5-4.4,1.2l-0.7-1.8c0.8-0.4,1.6-0.8,2.5-1c0.9-0.2,1.8-0.3,2.8-0.3c1.5-0.1,2.9,0.3,4.1,1.2c1,1.1,1.5,2.5,1.3,4
			v10.6H215.4z M210.1,52.5c1.3,0.1,2.5-0.4,3.5-1.2c0.9-0.9,1.3-2.1,1.3-3.4v-1.4l-2.4,0.1c-1.4,0-2.8,0.3-4,0.9
			c-0.8,0.5-1.3,1.4-1.3,2.4c-0.1,0.7,0.2,1.4,0.8,1.9C208.6,52.3,209.3,52.5,210.1,52.5z"/>
		<path d="M218.5,38.6h2.5l3.4,8.9c0.6,1.4,1,2.9,1.4,4.4h0.2c0.1-0.5,0.4-1.3,0.8-2.5s1.7-4.8,3.9-10.8h2.5l-6.7,17.7
			c-0.5,1.4-1.3,2.7-2.4,3.7c-0.9,0.7-2.1,1.1-3.3,1.1c-0.7,0-1.4-0.1-2.1-0.2V59c0.6,0.1,1.2,0.2,1.7,0.2c1.6,0,2.8-0.9,3.5-2.7
			l0.9-2.2L218.5,38.6z"/>
		<path d="M146.3,40c1.4,1,2.3,2.6,2.3,4.4c0,2.4-1.4,3.5-2.7,4.6c-0.5,0.4-0.9,1-0.9,1.6c0,0.6,0.4,1.1,0.9,1.4l1.2,0.9
			c1.4,1.2,2.7,2.3,2.7,4.6c0,3-3,6.2-8.6,6.2c-4.7,0-7-2.3-7-4.7c0.1-1.7,1-3.2,2.5-4c2-1.2,4.8-1.4,6.2-1.5
			c-0.6-0.6-0.9-1.4-1-2.2c0-0.4,0.1-0.9,0.3-1.3c-0.4,0-0.7,0.1-1,0.1c-2.8,0.1-5.2-2-5.4-4.9c0-0.1,0-0.2,0-0.2
			c0-1.7,0.8-3.3,2.1-4.4c1.7-1.3,3.7-1.9,5.8-1.8h6.7l-2.1,1.2H146.3z M144,54.5c-0.2,0-0.5,0-0.8,0c-1.2,0-2.3,0.2-3.4,0.5
			c-0.7,0.3-2.8,1-2.8,3.3s2.2,4,5.7,4c3.1,0,4.8-1.5,4.8-3.5C147.5,57.1,146.5,56.2,144,54.5z M144.9,48.3c0.6-0.7,0.9-1.5,0.8-2.4
			c0-2.3-1.4-6-4.1-6c-0.9,0-1.7,0.4-2.3,1.1c-0.5,0.7-0.8,1.5-0.7,2.4c0,2.2,1.3,5.8,4.1,5.8C143.5,49.2,144.3,48.9,144.9,48.3
			L144.9,48.3z"/>
		<path d="M125.8,54c-4.2,0.1-7.8-3.2-7.9-7.4c0-0.1,0-0.2,0-0.3c0-4.3,3.5-7.9,8.4-7.9c4.2-0.1,7.7,3.2,7.8,7.4c0,0.1,0,0.2,0,0.3
			c0,4.4-3.6,7.9-8,7.9C126,54,125.9,54,125.8,54z M129.9,51.4c0.7-1.1,1.1-2.3,1-3.6c0-2.9-1.4-8.3-5.4-8.3c-1.1,0-2.1,0.4-2.9,1.1
			c-1.1,1-1.6,2.5-1.5,4c0,3.2,1.6,8.5,5.5,8.5C127.9,53,129.1,52.4,129.9,51.4L129.9,51.4z"/>
		<path d="M108.2,54c-4.2,0.1-7.8-3.2-7.9-7.4c0-0.1,0-0.2,0-0.3c0-4.3,3.5-7.9,8.4-7.9c4.2-0.1,7.7,3.2,7.8,7.4c0,0.1,0,0.2,0,0.3
			c0,4.4-3.6,7.9-8,7.9C108.4,54,108.3,54,108.2,54z M112.3,51.4c0.7-1.1,1.1-2.3,1-3.6c0-2.9-1.4-8.3-5.4-8.3
			c-1.1,0-2.1,0.4-2.9,1.1c-1.1,1-1.6,2.5-1.5,4c0,3.1,1.5,8.5,5.5,8.5C110.3,53,111.5,52.4,112.3,51.4L112.3,51.4z"/>
		<path d="M97.8,53.4l-4.7,1.1c-1.8,0.3-3.6,0.5-5.4,0.5c-9,0-12.4-6.6-12.4-11.8c0-6.3,4.9-12.2,13.2-12.2c1.7,0,3.4,0.2,5,0.7
			c1.6,0.4,3,1.1,4.3,2l-2.7,2.6l-1.1,0.3l0.8-1.3c-1.8-2-4.3-3.1-7-3.1c-5.2,0-9,3.9-9,9.6c0,6.1,4.4,11.9,11.6,11.9
			c1.4,0,2.8-0.2,4.1-0.8v-5.3L89.5,48l2.6-1.4H99l-0.8,0.8c-0.2,0.1-0.3,0.3-0.3,0.5c0,0.3-0.1,1.3-0.1,1.6L97.8,53.4z"/>
		<path d="M156.6,52.5c-1.1-0.1-1.3-0.3-1.3-1.6V32.4c0-0.1,0-0.1,0-0.2c0.1-1.1,0.5-1.3,1.5-1.9h-4.7l-2.4,1.2h2.5v20.2
			c0,0.7-0.1,0.8-0.9,1.7h5.8l1.2-0.7L156.6,52.5z"/>
		<path d="M169.9,52.8c-0.4,0.2-0.7,0.4-1.1,0.6c-1,0.4-2.1,0.6-3.1,0.6c-1.5,0.1-3.1-0.4-4.3-1.3c-2.1-1.6-3.4-4.2-3.3-6.8
			c-0.1-4.1,3.1-7.4,7.2-7.5c0.1,0,0.2,0,0.2,0c1.2,0,2.3,0.3,3.4,0.9c1.1,0.7,1.9,1.9,2.3,3.2l-7.6,3.1l-2.5,0.2
			c0.8,4.1,3.6,6.5,6.7,6.5c1.4,0,2.8-0.4,4-1.1L169.9,52.8z M166.9,43.1c0.6-0.2,0.9-0.4,0.9-0.9c-0.2-1.6-1.6-2.8-3.2-2.8
			c-1.3,0-3.7,1-3.7,4.5c0,0.6,0.1,1.1,0.1,1.7L166.9,43.1z"/>
		<path d="M173.1,38.6v2.1h-0.3v-2.1h-0.7v-0.2h1.7v0.2L173.1,38.6z"/>
		<path d="M176,40.8v-2.2l0,0l-0.7,2.2h-0.2l-0.7-2.2l0,0v2.2h-0.2v-2.4h0.4l0.6,1.9l0,0l0.6-1.9h0.4v2.4L176,40.8z"/>
		<path d="M81.8,24.7h-1.6c-0.1-0.6-0.2-1.3-0.5-1.9h-2.3c-0.2,0.6-0.4,1.3-0.5,1.9h-1.5c0-0.1,0.4-1.2,1.2-3.2
			c0.5-1.1,0.9-2.2,1.2-3.4h1.9c0.3,1.1,0.6,2.2,1.1,3.3C81.1,22.5,81.5,23.6,81.8,24.7z M79.4,21.8c-0.3-0.9-0.6-1.9-0.9-2.8h-0.1
			c0,0.1-0.3,1.1-0.9,2.8L79.4,21.8z"/>
		<path d="M88.3,24.7h-1.3c-0.4-0.8-0.8-1.5-1.4-2.2c-0.7-0.9-1.2-1.8-1.7-2.9h-0.1c0.1,0.7,0.1,1.3,0.1,2c0,0.8,0,1.9,0.1,3h-1.2
			c0-1,0.1-2.2,0.1-3.5s0-2.3-0.1-3.1h1.5c0.3,0.8,0.7,1.5,1.3,2.1c0.6,0.8,1.1,1.7,1.5,2.7h0.1c-0.1-0.7-0.1-1.3-0.1-2
			c0-0.9,0-1.9-0.1-2.8h1.3c0,0.8-0.1,1.9-0.1,3.1S88.3,23.6,88.3,24.7z"/>
		<path d="M95.7,21.1c0,0.9-0.3,1.8-0.9,2.5c-0.7,0.7-1.6,1.1-2.6,1.1c-0.5,0-1.2,0-2.1-0.1c0-1,0.1-2.2,0.1-3.5
			c0-1.3,0-2.3-0.1-3.1H91h0.7h0.6c1-0.1,1.9,0.2,2.7,0.9C95.4,19.6,95.7,20.3,95.7,21.1z M94.3,21.4c0-0.6-0.2-1.2-0.6-1.6
			C93.3,19.2,92.6,19,92,19c-0.2,0-0.4,0-0.6,0c0,0.7,0.1,1.4,0.1,2.1s0,1.6,0,2.4c0.2,0,0.4,0.1,0.7,0.1c0.6,0.1,1.2-0.2,1.6-0.7
			C94.1,22.5,94.3,21.9,94.3,21.4z"/>
		<path d="M102.4,24.7h-1.5c-0.2-0.8-0.5-1.5-0.9-2.2c-0.2-0.3-0.6-0.5-1-0.5h-0.6c0,0.9,0,1.8,0.1,2.6h-1.4c0-1,0.1-2.2,0.1-3.5
			s0-2.3-0.1-3.1H98h0.6h0.9c1.6,0,2.3,0.5,2.3,1.6c0,0.8-0.5,1.5-1.3,1.8v0.1c0.4,0.1,0.7,0.4,0.9,0.8
			C101.8,23,102.2,23.8,102.4,24.7z M100.5,20c0-0.7-0.4-1-1.3-1c-0.3,0-0.6,0-0.8,0.1c0,0.5,0.1,1.2,0.1,2h0.5
			C100,21.1,100.5,20.8,100.5,20z"/>
		<path d="M109.7,21.3c0,1-0.3,1.9-1,2.6c-0.6,0.7-1.5,1-2.4,1c-0.8,0-1.7-0.3-2.2-0.9c-0.6-0.6-0.9-1.5-0.9-2.4
			c0-1,0.3-1.9,0.9-2.6c0.6-0.7,1.5-1,2.4-1c0.8,0,1.7,0.3,2.2,0.9C109.4,19.5,109.7,20.4,109.7,21.3z M108.3,21.4
			c0-0.6-0.2-1.2-0.6-1.7c-0.3-0.4-0.8-0.7-1.3-0.7c-0.5,0-1,0.2-1.3,0.7c-0.4,0.5-0.5,1.1-0.5,1.7c0,0.6,0.2,1.2,0.6,1.7
			c0.3,0.4,0.8,0.7,1.3,0.7c0.5,0,1-0.3,1.3-0.7C108.2,22.6,108.3,22,108.3,21.4z"/>
		<path d="M112.6,24.7h-1.4c0-1,0.1-2.2,0.1-3.5s0-2.3-0.1-3.1h1.4c0,0.9-0.1,1.9-0.1,3.1C112.5,22.5,112.5,23.6,112.6,24.7z"/>
		<path d="M119.9,21.1c0,0.9-0.3,1.8-0.9,2.5c-0.7,0.7-1.6,1.1-2.6,1.1c-0.5,0-1.2,0-2.1-0.1c0-1,0.1-2.2,0.1-3.5
			c0-1.3,0-2.3-0.1-3.1h0.9h0.6h0.6c1-0.1,1.9,0.2,2.7,0.9C119.6,19.6,119.9,20.3,119.9,21.1z M118.6,21.4c0-0.6-0.2-1.2-0.6-1.6
			c-0.4-0.5-1.1-0.7-1.7-0.7c-0.2,0-0.4,0-0.6,0c0,0.7,0,1.4,0,2.1s0,1.6,0,2.4c0.2,0,0.4,0.1,0.7,0.1c0.6,0.1,1.3-0.2,1.7-0.7
			C118.4,22.5,118.6,22,118.6,21.4z"/>
		<path d="M129.7,24.7h-1.6c-0.1-0.6-0.3-1.3-0.5-1.9h-2.3c-0.2,0.6-0.4,1.3-0.5,1.9h-1.5c0.3-1.1,0.7-2.2,1.2-3.2
			c0.5-1.1,0.9-2.2,1.2-3.4h1.9c0.3,1.1,0.7,2.2,1.1,3.3C129,22.5,129.4,23.6,129.7,24.7z M127.4,21.8c-0.3-0.9-0.6-1.9-0.9-2.8
			h-0.1c0,0.1-0.3,1.1-0.9,2.8H127.4z"/>
		<path d="M135.6,19.8c0,0.7-0.3,1.4-0.9,1.8c-0.7,0.4-1.4,0.6-2.2,0.6h-0.3c0,0.6,0,1.5,0.1,2.5h-1.4c0-1,0.1-2.1,0.1-3.5
			c0-1.2,0-2.3-0.1-3.1h0.9h0.7h0.9c0.6,0,1.1,0.1,1.6,0.4C135.4,18.8,135.6,19.3,135.6,19.8z M134.3,20.1c0-0.7-0.5-1.1-1.4-1.1
			c-0.3,0-0.5,0-0.8,0.1c0,0.6,0.1,1.4,0.1,2.2h0.3C133.7,21.3,134.3,20.9,134.3,20.1z"/>
		<path d="M141.7,19.8c0,0.7-0.3,1.4-0.9,1.8c-0.7,0.4-1.4,0.6-2.2,0.6h-0.3c0,0.6,0,1.5,0.1,2.5h-1.4c0-1,0.1-2.1,0.1-3.5
			s0-2.3-0.1-3.1h0.9h0.7h0.9c0.6,0,1.1,0.1,1.6,0.4C141.5,18.8,141.7,19.3,141.7,19.8z M140.4,20.1c0-0.7-0.5-1.1-1.4-1.1
			c-0.3,0-0.5,0-0.8,0.1c0,0.6,0.1,1.4,0.1,2.2h0.3C139.8,21.3,140.4,20.9,140.4,20.1z"/>
		<path d="M151.6,21.3c0,1-0.3,1.9-1,2.6c-0.6,0.7-1.5,1-2.4,1c-0.8,0-1.7-0.3-2.2-0.9c-0.6-0.6-0.9-1.5-0.9-2.4
			c0-1,0.3-1.9,0.9-2.6c0.6-0.7,1.5-1,2.4-1c0.8,0,1.7,0.3,2.2,0.9C151.3,19.5,151.7,20.4,151.6,21.3z M150.2,21.4
			c0-0.6-0.2-1.2-0.6-1.7c-0.3-0.4-0.8-0.7-1.3-0.7c-0.5,0-1,0.2-1.3,0.7c-0.4,0.5-0.5,1.1-0.5,1.7c0,0.6,0.2,1.2,0.5,1.7
			c0.3,0.4,0.8,0.7,1.3,0.7c0.5,0,1-0.3,1.3-0.7C150.1,22.6,150.3,22,150.2,21.4z"/>
		<path d="M158.5,24.7h-1.3c-0.4-0.8-0.9-1.5-1.4-2.2c-0.7-0.9-1.2-1.8-1.7-2.9h-0.1c0.1,0.7,0.1,1.3,0.1,2c0,0.8,0,1.9,0.1,3h-1.3
			c0.1-1,0.1-2.2,0.1-3.5s0-2.3-0.1-3.1h1.5c0.3,0.8,0.7,1.5,1.3,2.1c0.6,0.8,1.1,1.7,1.5,2.7h0.1c-0.1-0.7-0.1-1.3-0.1-2
			c0-0.9,0-1.9-0.1-2.8h1.3c0,0.8-0.1,1.9-0.1,3.1S158.5,23.6,158.5,24.7z"/>
	</g>
</g>
</svg>
