<svg xmlns="http://www.w3.org/2000/svg" xmlns:xlink="http://www.w3.org/1999/xlink" viewBox="0 0 245.51 83"><defs><style>.cls-1,.cls-2{fill:none;}.cls-2{stroke:#fff;stroke-miterlimit:10;stroke-width:4px;}.cls-3{clip-path:url(#clip-path);}.cls-4{fill:url(#linear-gradient);}.cls-5{fill:url(#linear-gradient-2);}.cls-6{fill:url(#linear-gradient-3);}.cls-7{fill:url(#linear-gradient-4);}.cls-8{fill:#f9f9f9;}.cls-9{fill:#fcfcfc;}</style><clipPath id="clip-path"><path class="cls-1" d="M54.34,36.77,43.45,30.49l-21-12.13c-1.16-.67-2.33-.27-2.33,1.14V68.91c0,1.06.84,1.51,1.85.93L43.45,57.43l10.89-6.29,10.46-6c1.23-.71,1.11-1.68.08-2.24S54.34,36.77,54.34,36.77Z"/></clipPath><linearGradient id="linear-gradient" x1="33.6" y1="17.21" x2="33.6" y2="70.71" gradientUnits="userSpaceOnUse"><stop offset="0" stop-color="#207ab0"/><stop offset="0.32" stop-color="#4a98b5"/><stop offset="0.78" stop-color="#81c0bb"/><stop offset="1" stop-color="#97cfbe"/></linearGradient><linearGradient id="linear-gradient-2" x1="20.11" y1="30.49" x2="54.34" y2="30.49" gradientUnits="userSpaceOnUse"><stop offset="0" stop-color="#59bbaa"/><stop offset="1" stop-color="#e6e89a"/></linearGradient><linearGradient id="linear-gradient-3" x1="37.23" y1="43.96" x2="37.23" y2="70.9" gradientUnits="userSpaceOnUse"><stop offset="0" stop-color="#e43332"/><stop offset="0.16" stop-color="#d43643"/><stop offset="0.73" stop-color="#a23e7a"/><stop offset="1" stop-color="#8e4190"/></linearGradient><linearGradient id="linear-gradient-4" x1="56.94" y1="36.77" x2="56.94" y2="51.14" gradientUnits="userSpaceOnUse"><stop offset="0" stop-color="#f08779"/><stop offset="0.63" stop-color="#f8b474"/><stop offset="1" stop-color="#fcca72"/></linearGradient></defs><g id="Layer_2" data-name="Layer 2"><g id="Camada_1" data-name="Camada 1"><rect class="cls-2" x="2" y="2" width="241.51" height="79" rx="10.68"/><g id="PLAY"><g class="cls-3"><polygon class="cls-4" points="20.11 17.21 20.11 43.96 20.11 70.71 47.09 43.96 20.11 17.21"/><polygon class="cls-5" points="54.34 36.77 43.45 30.49 20.11 17.02 20.11 17.21 47.09 43.96 54.34 36.77"/><polygon class="cls-6" points="20.11 70.71 20.11 70.9 43.45 57.43 54.34 51.14 47.09 43.96 20.11 70.71"/><polygon class="cls-7" points="54.34 36.77 47.09 43.96 54.34 51.14 66.78 43.96 54.34 36.77"/></g></g><path class="cls-8" d="M190,54.42a6.75,6.75,0,0,1-2.77-.56,5.25,5.25,0,0,1-2.11-1.73h-.17a21.59,21.59,0,0,1,.17,2.58v6.41h-2.36V38.57h1.92L185,40.7h.11a5.53,5.53,0,0,1,2.11-1.84,6.44,6.44,0,0,1,2.77-.57,5.75,5.75,0,0,1,4.78,2.12,9.3,9.3,0,0,1,1.68,5.93,9.29,9.29,0,0,1-1.71,6A5.77,5.77,0,0,1,190,54.42Zm-.34-14.13a4.18,4.18,0,0,0-3.45,1.32,6.8,6.8,0,0,0-1.09,4.2v.53c0,2.19.36,3.75,1.09,4.69a4.17,4.17,0,0,0,3.51,1.41,3.64,3.64,0,0,0,3.16-1.63,7.76,7.76,0,0,0,1.14-4.5,7.44,7.44,0,0,0-1.14-4.46A3.76,3.76,0,0,0,189.61,40.29Z"/><path class="cls-8" d="M201.87,54.13h-2.36V32h2.36Z"/><path class="cls-8" d="M215.42,54.13,215,51.92h-.12a6.6,6.6,0,0,1-2.32,2,7.15,7.15,0,0,1-2.89.52,5.15,5.15,0,0,1-3.62-1.2,4.32,4.32,0,0,1-1.32-3.39q0-4.71,7.54-4.94l2.64-.08v-1a3.91,3.91,0,0,0-.79-2.7,3.2,3.2,0,0,0-2.52-.88,10.25,10.25,0,0,0-4.4,1.2l-.72-1.81a11.68,11.68,0,0,1,2.52-1,11.21,11.21,0,0,1,2.75-.35,5.93,5.93,0,0,1,4.12,1.23,5.19,5.19,0,0,1,1.34,4V54.13Zm-5.33-1.66a4.81,4.81,0,0,0,3.46-1.2,4.48,4.48,0,0,0,1.26-3.38V46.48l-2.36.1a8.64,8.64,0,0,0-4,.87,2.64,2.64,0,0,0-1.25,2.41,2.4,2.4,0,0,0,.78,1.94A3.16,3.16,0,0,0,210.09,52.47Z"/><path class="cls-8" d="M218.53,38.57h2.53l3.4,8.88a33,33,0,0,1,1.39,4.38H226c.12-.48.38-1.3.77-2.47s1.68-4.77,3.86-10.79h2.52l-6.68,17.72A8.93,8.93,0,0,1,224.11,60a4.94,4.94,0,0,1-3.25,1.1,9.53,9.53,0,0,1-2.13-.24V59a8.41,8.41,0,0,0,1.74.17q2.43,0,3.47-2.73l.86-2.21Z"/><path class="cls-8" d="M146.3,40a5.48,5.48,0,0,1,2.31,4.39c0,2.41-1.37,3.55-2.73,4.62a2.29,2.29,0,0,0-.92,1.6,1.79,1.79,0,0,0,.85,1.4l1.17.91c1.44,1.2,2.74,2.31,2.74,4.56,0,3-3,6.15-8.56,6.15-4.72,0-7-2.25-7-4.66a4.69,4.69,0,0,1,2.51-4c2-1.24,4.75-1.4,6.21-1.5a3.42,3.42,0,0,1-1-2.21,3,3,0,0,1,.32-1.27c-.36,0-.71.07-1,.07a5.14,5.14,0,0,1-5.4-5.11,5.83,5.83,0,0,1,2.08-4.36,8.88,8.88,0,0,1,5.83-1.79h6.7L148.32,40ZM144,54.47a5.71,5.71,0,0,0-.75,0,12.87,12.87,0,0,0-3.42.52c-.71.26-2.79,1-2.79,3.35s2.24,4,5.72,4c3.13,0,4.79-1.5,4.79-3.52C147.54,57.1,146.46,56.23,144,54.47Zm.94-6.18a3.3,3.3,0,0,0,.82-2.38c0-2.34-1.4-6-4.1-6A3,3,0,0,0,139.37,41a3.76,3.76,0,0,0-.72,2.4c0,2.18,1.27,5.8,4.07,5.8A3.33,3.33,0,0,0,144.93,48.29Z"/><path class="cls-8" d="M125.81,54a7.66,7.66,0,0,1-7.92-7.67c0-4.26,3.47-7.89,8.41-7.89a7.59,7.59,0,0,1,7.77,7.66A7.94,7.94,0,0,1,125.81,54Zm4.06-2.63a5.89,5.89,0,0,0,1-3.61c0-2.86-1.36-8.32-5.39-8.32a4.55,4.55,0,0,0-2.93,1.11,4.92,4.92,0,0,0-1.49,4c0,3.22,1.59,8.51,5.52,8.51A4.13,4.13,0,0,0,129.87,51.32Z"/><path class="cls-8" d="M108.2,54a7.66,7.66,0,0,1-7.92-7.67c0-4.26,3.47-7.89,8.41-7.89a7.59,7.59,0,0,1,7.77,7.66A7.94,7.94,0,0,1,108.2,54Zm4.07-2.63a6,6,0,0,0,1-3.61c0-2.86-1.36-8.32-5.39-8.32a4.55,4.55,0,0,0-2.93,1.11,4.92,4.92,0,0,0-1.49,4C103.43,47.68,105,53,109,53A4.16,4.16,0,0,0,112.27,51.32Z"/><path class="cls-8" d="M97.79,53.44l-4.67,1.08a35.07,35.07,0,0,1-5.39.55c-9,0-12.44-6.63-12.44-11.82,0-6.34,4.86-12.22,13.2-12.22a18.57,18.57,0,0,1,5,.69,12.65,12.65,0,0,1,4.31,2l-2.71,2.58-1.14.26.82-1.3a9.33,9.33,0,0,0-7-3.07c-5.17,0-9,3.92-9,9.63,0,6.14,4.44,11.93,11.56,11.93A9.78,9.78,0,0,0,94.43,53V47.69L89.5,48l2.61-1.4H99l-.84.81a.75.75,0,0,0-.33.52c0,.3-.07,1.25-.07,1.57Z"/><path class="cls-8" d="M156.62,52.5c-1.07-.1-1.3-.29-1.3-1.57V32.44c0-.07,0-.14,0-.21.13-1.14.46-1.34,1.47-1.93h-4.67l-2.45,1.18h2.49V51.65c0,.65-.13.75-.88,1.73h5.78l1.21-.72Z"/><path class="cls-8" d="M169.92,52.8c-.36.19-.72.42-1.07.58a7.52,7.52,0,0,1-3.15.62,7,7,0,0,1-4.32-1.27,8.38,8.38,0,0,1-3.3-6.84,7.34,7.34,0,0,1,7.42-7.49,6.4,6.4,0,0,1,3.35.9,5.42,5.42,0,0,1,2.27,3.21l-7.63,3.09-2.49.19c.81,4.12,3.6,6.52,6.68,6.52a8.44,8.44,0,0,0,4-1.13Zm-3-9.67c.61-.23.94-.42.94-.87a3.22,3.22,0,0,0-3.21-2.79c-1.3,0-3.73,1-3.73,4.5,0,.56.06,1.14.09,1.73Z"/><path class="cls-8" d="M173.05,38.62v2.14h-.26V38.62h-.71V38.4h1.68v.22Z"/><path class="cls-8" d="M176,40.76V38.6h0l-.66,2.16h-.2l-.66-2.16h0v2.16h-.24V38.4h.41l.6,1.91h0l.59-1.91h.41v2.36Z"/><path class="cls-9" d="M81.78,24.67H80.15a10.67,10.67,0,0,0-.46-1.9H77.35a9.85,9.85,0,0,0-.48,1.9H75.34c0-.13.4-1.21,1.19-3.24a25.68,25.68,0,0,0,1.18-3.36h1.92a29.44,29.44,0,0,0,1.07,3.31A28.92,28.92,0,0,1,81.78,24.67Zm-2.35-2.86A29.22,29.22,0,0,1,78.56,19h-.08c0,.13-.3,1.07-.89,2.83Z"/><path class="cls-9" d="M88.32,24.67H87.06a12.22,12.22,0,0,0-1.39-2.2A12.11,12.11,0,0,1,84,19.61h-.08a16.71,16.71,0,0,1,.13,2c0,.83,0,1.85.07,3.05H82.87c0-1.05.08-2.2.08-3.45s0-2.29-.08-3.15h1.51a9.7,9.7,0,0,0,1.25,2.14,12.33,12.33,0,0,1,1.53,2.71h.08a19.52,19.52,0,0,1-.12-2c0-.92,0-1.86-.07-2.82h1.27c0,.84-.08,1.89-.08,3.15S88.27,23.64,88.32,24.67Z"/><path class="cls-9" d="M95.67,21.14a3.74,3.74,0,0,1-.93,2.52,3.22,3.22,0,0,1-2.58,1.07q-.75,0-2.07-.06.06-1.53.06-3.45t-.06-3.15H91l.65,0h.56a3.4,3.4,0,0,1,2.65.91A3.16,3.16,0,0,1,95.67,21.14Zm-1.39.22a2.43,2.43,0,0,0-.57-1.64A2.11,2.11,0,0,0,92,19.05a5.71,5.71,0,0,0-.6.05c0,.67.05,1.38.05,2.12s0,1.61,0,2.4a3,3,0,0,0,.66.07A1.93,1.93,0,0,0,93.76,23,2.6,2.6,0,0,0,94.28,21.36Z"/><path class="cls-9" d="M102.45,24.67h-1.51a10.08,10.08,0,0,0-.9-2.22A1.18,1.18,0,0,0,99,22h-.57c0,.87,0,1.75.05,2.63H97.1c0-1,.07-2.17.07-3.45s0-2.28-.07-3.15H98l.63,0h.9c1.55,0,2.33.53,2.33,1.59a1.79,1.79,0,0,1-1.33,1.76v.08a1.59,1.59,0,0,1,.9.79A19.12,19.12,0,0,1,102.45,24.67ZM100.54,20c0-.67-.43-1-1.29-1a4.36,4.36,0,0,0-.85.07c0,.52.06,1.2.06,2.05h.47C100,21.13,100.54,20.75,100.54,20Z"/><path class="cls-9" d="M109.72,21.25a3.62,3.62,0,0,1-1,2.58,3.09,3.09,0,0,1-2.36,1,3,3,0,0,1-2.24-.94,3.3,3.3,0,0,1-.9-2.39,3.65,3.65,0,0,1,.95-2.58,3.12,3.12,0,0,1,2.36-1,3,3,0,0,1,2.24.93A3.31,3.31,0,0,1,109.72,21.25Zm-1.4.14a2.55,2.55,0,0,0-.55-1.71,1.65,1.65,0,0,0-1.33-.66,1.54,1.54,0,0,0-1.26.66,2.61,2.61,0,0,0-.52,1.68,2.61,2.61,0,0,0,.55,1.72,1.65,1.65,0,0,0,1.33.66,1.54,1.54,0,0,0,1.26-.67A2.67,2.67,0,0,0,108.32,21.39Z"/><path class="cls-9" d="M112.58,24.67h-1.43c0-1.05.07-2.2.07-3.45s0-2.29-.07-3.15h1.43q-.06,1.28-.06,3.15T112.58,24.67Z"/><path class="cls-9" d="M119.94,21.14a3.74,3.74,0,0,1-.93,2.52,3.22,3.22,0,0,1-2.58,1.07q-.75,0-2.07-.06.06-1.53.06-3.45t-.06-3.15h.89l.64,0h.57a3.4,3.4,0,0,1,2.65.91A3.16,3.16,0,0,1,119.94,21.14Zm-1.39.22a2.43,2.43,0,0,0-.57-1.64,2.11,2.11,0,0,0-1.73-.67,5.51,5.51,0,0,0-.6.05c0,.67,0,1.38,0,2.12s0,1.61,0,2.4a3,3,0,0,0,.66.07A1.93,1.93,0,0,0,118,23,2.6,2.6,0,0,0,118.55,21.36Z"/><path class="cls-9" d="M129.69,24.67h-1.62a11.16,11.16,0,0,0-.47-1.9h-2.34a9.85,9.85,0,0,0-.48,1.9h-1.52a34.45,34.45,0,0,1,1.18-3.24,26.77,26.77,0,0,0,1.19-3.36h1.91a28.43,28.43,0,0,0,1.08,3.31A30,30,0,0,1,129.69,24.67Zm-2.34-2.86a29.22,29.22,0,0,1-.87-2.83h-.08c0,.13-.3,1.07-.9,2.83Z"/><path class="cls-9" d="M135.61,19.8a2,2,0,0,1-.9,1.79,4.06,4.06,0,0,1-2.21.58h-.34c0,.63,0,1.47.05,2.51h-1.42q.06-1.47.06-3.45,0-1.83-.06-3.15h.88l.72,0h.92a2.89,2.89,0,0,1,1.63.43A1.5,1.5,0,0,1,135.61,19.8Zm-1.31.28c0-.73-.48-1.09-1.44-1.09a4.09,4.09,0,0,0-.76.08c0,.64.05,1.36.05,2.17h.3C133.68,21.25,134.3,20.86,134.3,20.08Z"/><path class="cls-9" d="M141.69,19.8a2,2,0,0,1-.9,1.79,4.06,4.06,0,0,1-2.21.58h-.34c0,.63,0,1.47.06,2.51h-1.43c0-1,.07-2.13.07-3.45s0-2.27-.07-3.15h.88l.72,0h.93a2.94,2.94,0,0,1,1.63.43A1.49,1.49,0,0,1,141.69,19.8Zm-1.31.28c0-.73-.48-1.09-1.44-1.09a4.18,4.18,0,0,0-.76.08c0,.64.06,1.36.06,2.17h.29C139.76,21.25,140.38,20.86,140.38,20.08Z"/><path class="cls-9" d="M151.64,21.25a3.62,3.62,0,0,1-1,2.58,3.09,3.09,0,0,1-2.36,1,3,3,0,0,1-2.24-.94,3.3,3.3,0,0,1-.9-2.39,3.65,3.65,0,0,1,.95-2.58,3.1,3.1,0,0,1,2.36-1,3,3,0,0,1,2.24.93A3.35,3.35,0,0,1,151.64,21.25Zm-1.4.14a2.55,2.55,0,0,0-.55-1.71,1.67,1.67,0,0,0-1.34-.66,1.53,1.53,0,0,0-1.25.66,2.61,2.61,0,0,0-.52,1.68,2.66,2.66,0,0,0,.54,1.72,1.68,1.68,0,0,0,1.34.66,1.55,1.55,0,0,0,1.26-.67A2.67,2.67,0,0,0,150.24,21.39Z"/><path class="cls-9" d="M158.51,24.67h-1.25a12.69,12.69,0,0,0-1.4-2.2,11.94,11.94,0,0,1-1.66-2.86h-.08a19.06,19.06,0,0,1,.13,2c0,.83,0,1.85.07,3.05h-1.25c.05-1.05.07-2.2.07-3.45s0-2.29-.07-3.15h1.5a9.52,9.52,0,0,0,1.26,2.14,12.33,12.33,0,0,1,1.53,2.71h.08a17.28,17.28,0,0,1-.13-2c0-.92,0-1.86-.07-2.82h1.27c0,.84-.07,1.89-.07,3.15S158.46,23.64,158.51,24.67Z"/></g></g></svg>