<svg width="150" height="150" viewBox="0 0 150 150" fill="none" xmlns="http://www.w3.org/2000/svg">
<path d="M75 37.5C77.5888 37.5 79.6875 39.5987 79.6875 42.1875V56.25C79.6875 58.8388 77.5888 60.9375 75 60.9375C72.4112 60.9375 70.3125 58.8388 70.3125 56.25V42.1875C70.3125 39.5987 72.4112 37.5 75 37.5Z" fill="black"/>
<path d="M34.9897 53.7397C36.8203 51.9091 39.7882 51.9091 41.6188 53.7397L50.1896 62.3104C52.0201 64.141 52.0201 67.109 50.1896 68.9396C48.359 70.7701 45.391 70.7701 43.5604 68.9396L34.9897 60.3688C33.1591 58.5382 33.1591 55.5703 34.9897 53.7397Z" fill="black"/>
<path d="M18.75 93.75C18.75 91.1612 20.8487 89.0625 23.4375 89.0625H38.3043C40.8931 89.0625 42.9918 91.1612 42.9918 93.75C42.9918 96.3388 40.8931 98.4375 38.3043 98.4375H23.4375C20.8487 98.4375 18.75 96.3388 18.75 93.75Z" fill="black"/>
<path d="M107.812 93.75C107.812 91.1612 109.911 89.0625 112.5 89.0625H126.562C129.151 89.0625 131.25 91.1612 131.25 93.75C131.25 96.3388 129.151 98.4375 126.562 98.4375H112.5C109.911 98.4375 107.812 96.3388 107.812 93.75Z" fill="black"/>
<path d="M114.884 53.9458C113.539 52.6006 111.385 52.517 109.94 53.754L70.7556 87.2865C66.9794 90.518 66.7558 96.2812 70.2702 99.7956C73.8657 103.391 79.7887 103.061 82.9626 99.0885L115.155 58.7956C116.313 57.3461 116.196 55.2577 114.884 53.9458Z" fill="black"/>
<path fill-rule="evenodd" clip-rule="evenodd" d="M0 93.75C0 52.3286 33.5786 18.75 75 18.75C116.421 18.75 150 52.3286 150 93.75C150 102.489 148.504 110.888 145.749 118.699C141.606 130.447 128.459 133.719 118.263 130.415C106.024 126.449 88.8197 121.875 75 121.875C61.1803 121.875 43.9762 126.449 31.7372 130.415C21.5408 133.719 8.39382 130.447 4.25091 118.699C1.49644 110.888 0 102.489 0 93.75ZM75 28.125C38.7563 28.125 9.375 57.5063 9.375 93.75C9.375 101.412 10.6861 108.758 13.0923 115.581C14.9957 120.979 21.748 123.797 28.8471 121.497C41.2136 117.489 59.6099 112.5 75 112.5C90.3901 112.5 108.786 117.489 121.153 121.497C128.252 123.797 135.004 120.979 136.908 115.581C139.314 108.758 140.625 101.412 140.625 93.75C140.625 57.5063 111.244 28.125 75 28.125Z" fill="black"/>
</svg>
