<svg xmlns="http://www.w3.org/2000/svg" viewBox="0 0 14.61 31.46"><defs><style>.cls-1{fill:#94a3c0;fill-rule:evenodd;}</style></defs><g id="Layer_2" data-name="Layer 2"><g id="Camada_1" data-name="Camada 1"><path class="cls-1" d="M3.22,15.85V31.06a.4.4,0,0,0,.4.4H9.26a.4.4,0,0,0,.4-.4V15.6h4.09a.39.39,0,0,0,.4-.36l.39-4.66a.39.39,0,0,0-.39-.43H9.66V6.85a1.4,1.4,0,0,1,1.4-1.4h3.16a.39.39,0,0,0,.39-.4V.4a.39.39,0,0,0-.39-.4H8.88A5.67,5.67,0,0,0,3.22,5.67v4.48H.4a.4.4,0,0,0-.4.4v4.66a.39.39,0,0,0,.4.39H3.22Z"/></g></g></svg>