<svg width="425" height="604" viewBox="0 0 425 604" fill="none" xmlns="http://www.w3.org/2000/svg">
<ellipse cx="207.201" cy="367.816" rx="189.381" ry="189.738" fill="#7E2D2D"/>
<path d="M1.49609 210.454C1.49609 213.625 3.14432 223.335 3.96843 227.793V231.261H34.1309C33.6364 220.528 32.5486 197.277 32.153 190.143C31.6586 181.226 26.7139 173.3 22.7582 180.235C19.5936 185.784 21.4396 199.721 22.7582 205.996C22.2637 205.005 20.6814 203.222 18.308 204.014C15.9345 204.807 16.0004 208.638 16.3301 210.454C16.0004 209.464 14.6489 207.185 11.8799 205.996C9.11088 204.807 8.41863 208.473 8.41863 210.454C6.93523 207.482 1.49609 206.491 1.49609 210.454Z" fill="#ECD2B4"/>
<path d="M143.408 165.375C108.597 229.578 122.97 313.664 134.507 347.682C160.549 363.865 221.731 394.249 258.124 386.323C294.516 378.396 310.867 326.214 314.493 301.114C310.207 267.757 299.857 197.675 292.736 184.2C283.836 167.356 186.921 85.12 143.408 165.375Z" fill="#ECD2B4"/>
<path d="M249.222 179.245C174.854 202.231 129.89 169.667 116.705 150.512C105.628 133.074 104.837 110.219 105.826 100.972C142.417 135.65 171.096 94.0362 221.531 81.1558C261.88 70.8515 281.856 99.981 286.801 115.834C314.491 103.944 342.181 115.834 337.237 179.245C333.281 229.974 319.106 276.343 312.513 293.187C302.294 274.692 284.032 237.702 292.735 237.702C303.613 237.702 301.635 221.849 292.735 212.932C285.614 205.798 276.582 215.904 272.956 221.849L249.222 179.245Z" fill="#1C1B1F" stroke="black"/>
<path d="M324.381 304.085H115.716C109.453 323.901 91.1907 360.164 68.2475 346.69C45.3042 333.215 40.2277 261.811 40.5573 227.794H1C6.9336 263.793 25.13 342.33 50.4467 368.487C75.7634 394.644 104.508 371.46 115.716 356.598L119.672 473.512L313.503 479.457L324.381 346.69C328.007 349.332 338.028 356.003 349.105 381.368C360.181 406.732 344.49 450.723 335.259 469.549L361.961 479.457C368.224 457.989 378.773 404.75 370.861 363.533C362.95 322.316 336.578 313.993 324.381 314.984V304.085Z" fill="white" stroke="#C89E9E"/>
<path d="M220.041 256.029C201.053 252.066 174.22 254.378 163.177 256.029C165.65 264.451 170.1 281.79 196.307 281.294C217.272 280.898 220.865 264.286 220.041 256.029Z" fill="#333333"/>
<ellipse cx="158.233" cy="223.334" rx="4.94467" ry="10.4034" fill="#333333"/>
<ellipse cx="232.406" cy="223.333" rx="4.94467" ry="10.4034" fill="#333333"/>
<rect width="89.7928" height="128.541" rx="14" transform="matrix(0.306595 -0.95184 0.951502 0.307643 274.941 460.89)" fill="#7B9789"/>
<rect width="70.0219" height="105.911" transform="matrix(0.306595 -0.95184 0.951502 0.307643 289.169 455.099)" fill="#D9D9D9"/>
<line y1="-0.5" x2="54.37" y2="-0.5" transform="matrix(0.306595 -0.95184 0.951502 0.307643 303.748 451.157)" stroke="#979797"/>
<line y1="-0.5" x2="54.37" y2="-0.5" transform="matrix(0.306595 -0.95184 0.951502 0.307643 310.638 453.384)" stroke="#979797"/>
<line y1="-0.5" x2="54.37" y2="-0.5" transform="matrix(0.306595 -0.95184 0.951502 0.307643 317.528 455.611)" stroke="#979797"/>
<line y1="-0.5" x2="54.37" y2="-0.5" transform="matrix(0.306595 -0.95184 0.951502 0.307643 324.419 457.838)" stroke="#979797"/>
<line y1="-0.5" x2="54.37" y2="-0.5" transform="matrix(0.306595 -0.95184 0.951502 0.307643 331.307 460.065)" stroke="#979797"/>
<line y1="-0.5" x2="54.37" y2="-0.5" transform="matrix(0.306595 -0.95184 0.951502 0.307643 338.197 462.292)" stroke="#979797"/>
<line y1="-0.5" x2="54.37" y2="-0.5" transform="matrix(0.306595 -0.95184 0.951502 0.307643 345.088 464.525)" stroke="#979797"/>
<line y1="-0.5" x2="54.37" y2="-0.5" transform="matrix(0.306595 -0.95184 0.951502 0.307643 351.985 466.752)" stroke="#979797"/>
<line y1="-0.5" x2="54.37" y2="-0.5" transform="matrix(0.306595 -0.95184 0.951502 0.307643 358.876 468.979)" stroke="#979797"/>
<line y1="-0.5" x2="54.37" y2="-0.5" transform="matrix(0.306595 -0.95184 0.951502 0.307643 365.756 471.206)" stroke="#979797"/>
<line y1="-0.5" x2="54.37" y2="-0.5" transform="matrix(0.306595 -0.95184 0.951502 0.307643 372.657 473.433)" stroke="#979797"/>
<line y1="-0.5" x2="54.37" y2="-0.5" transform="matrix(0.306595 -0.95184 0.951502 0.307643 379.548 475.66)" stroke="#979797"/>
<path d="M344.66 379.384C337.144 357.587 326.694 349.165 322.409 347.679V312.01C352.571 319.441 364.933 328.854 377.789 370.467C388.074 403.758 375.152 453.199 367.9 471.529L344.66 463.602C350.593 443.786 354.055 406.631 344.66 379.384Z" fill="white"/>
<path d="M329.828 464.591C331.014 461.421 340.211 463.27 344.662 464.591L369.88 472.518C366.583 481.765 359.298 500.161 356.529 499.765C353.76 499.368 355.375 496.957 356.529 495.802C355.54 496.627 353.068 498.179 351.09 497.783C349.112 497.387 349.277 494.976 349.606 493.82C349.112 494.48 347.431 495.802 344.662 495.802C341.892 495.802 342.519 492.499 343.178 490.848C341.2 492.169 336.948 494.018 335.761 490.848C334.575 487.677 338.563 476.316 340.706 471.032C336.585 470.206 328.641 467.762 329.828 464.591Z" fill="#ECD2B4"/>
<path fill-rule="evenodd" clip-rule="evenodd" d="M202.647 494.215L192.86 595.205C178.521 601.645 115.229 610.563 120.174 591.737C123.829 577.819 146.35 572.702 159.632 571.615L140.036 474.804L297.309 479.236L259.293 565.187C275.796 568.383 304.865 577.575 289.114 588.774C273.363 599.973 240.357 593.714 225.823 589.184L225.21 494.069L202.647 494.215Z" fill="#2A2E35"/>
<path d="M34 1H308.182L286.761 44L359.591 1H411" stroke="black"/>
</svg>
