<svg width="113" height="150" viewBox="0 0 113 150" fill="none" xmlns="http://www.w3.org/2000/svg">
<path d="M0 56.25C0 25.184 25.184 0 56.25 0C87.316 0 112.5 25.184 112.5 56.25C112.5 72.1054 105.934 86.4354 95.3847 96.6548C93.4821 98.4979 92.0174 100.413 91.1369 102.457L83.9926 119.042C83.252 120.761 81.5595 121.875 79.6875 121.875C82.2763 121.875 84.375 123.974 84.375 126.562C84.375 129.151 82.2763 131.25 79.6875 131.25C82.2763 131.25 84.375 133.349 84.375 135.938C84.375 138.526 82.2763 140.625 79.6875 140.625L77.5912 144.818C76.0031 147.994 72.7569 150 69.2059 150H43.2941C39.7431 150 36.4969 147.994 34.9088 144.818L32.8125 140.625C30.2237 140.625 28.125 138.526 28.125 135.938C28.125 133.349 30.2237 131.25 32.8125 131.25C30.2237 131.25 28.125 129.151 28.125 126.562C28.125 123.974 30.2237 121.875 32.8125 121.875C30.9405 121.875 29.248 120.761 28.5074 119.042L21.3631 102.457C20.4826 100.413 19.0179 98.4979 17.1153 96.6548C6.5662 86.4354 0 72.1054 0 56.25ZM56.25 9.375C30.3616 9.375 9.375 30.3617 9.375 56.25C9.375 69.4643 14.8368 81.3947 23.6384 89.9212C26.1 92.3059 28.4498 95.2113 29.9732 98.7478L35.8972 112.5H76.6028L82.5268 98.7478C84.0502 95.2113 86.4 92.3059 88.8616 89.9212C97.6632 81.3947 103.125 69.4643 103.125 56.25C103.125 30.3617 82.1384 9.375 56.25 9.375Z" fill="black"/>
</svg>
