<svg xmlns="http://www.w3.org/2000/svg" viewBox="0 0 31 31"><defs><style>.cls-1{fill:#94a3c0;}</style></defs><g id="Layer_2" data-name="Layer 2"><g id="Camada_1" data-name="Camada 1"><path class="cls-1" d="M25.5,7.22a1.8,1.8,0,1,1-1.79-1.8A1.8,1.8,0,0,1,25.5,7.22Zm-2.24,8.06a7.55,7.55,0,1,1-7.55-7.55A7.56,7.56,0,0,1,23.26,15.28Zm-2.71,0a4.84,4.84,0,1,0-4.84,4.84A4.84,4.84,0,0,0,20.55,15.28ZM31,9.21A9.22,9.22,0,0,0,21.79,0H9.21A9.22,9.22,0,0,0,0,9.21V21.79A9.22,9.22,0,0,0,9.21,31H21.79A9.22,9.22,0,0,0,31,21.79ZM28,21.65A6.34,6.34,0,0,1,21.65,28H9.35A6.34,6.34,0,0,1,3,21.65V9.35A6.34,6.34,0,0,1,9.35,3h12.3A6.34,6.34,0,0,1,28,9.35Z"/></g></g></svg>