<svg width="158" height="97" viewBox="0 0 158 97" fill="none" xmlns="http://www.w3.org/2000/svg">
<g id="Camada_1" clip-path="url(#clip0_10_2)">
<path id="Vector" d="M13.6579 84.017C21.7389 92.2285 33.0719 97.2527 45.6122 96.9903C68.5313 96.5141 87.332 77.9725 88.1109 55.0967C88.5101 43.4062 84.2553 32.6874 77.0408 24.6508L52.856 66.1167L52.8268 66.0973C52.3399 66.6998 51.6 67.0594 50.8211 67.0594H38.3198C37.3851 67.0788 36.5283 66.5735 36.0707 65.7669L30.0245 55.1162L13.6676 84.017H13.6579Z" fill="url(#paint0_linear_10_2)"/>
<path id="Vector_2" d="M75.0059 22.6392C66.9248 14.4276 55.5918 9.40351 43.0516 9.66589C20.1227 10.1421 1.32203 28.6837 0.552869 51.5497C0.153683 63.2403 4.40842 73.959 11.623 81.9957L35.8078 40.5297L35.837 40.5491C36.3238 39.9466 37.0638 39.5871 37.8427 39.5871H50.344C51.2787 39.5676 52.1355 40.073 52.5931 40.8796L58.6393 51.5303L74.9962 22.6295L75.0059 22.6392Z" fill="url(#paint1_linear_10_2)"/>
<path id="Vector_3" d="M120.523 7.30446V96.8737H99.7847V7.30446H120.523Z" fill="white"/>
<path id="Vector_4" d="M156.294 29.3348V96.8737H135.556V29.3348H156.294Z" fill="white"/>
<path id="Vector_5" d="M152.672 1.80417C152.321 1.20166 151.679 0.842102 150.988 0.842102H140.891C140.2 0.842102 139.557 1.21138 139.207 1.80417L134.173 10.4044C133.823 11.0069 133.823 11.7649 134.173 12.3674L139.207 20.9677C139.557 21.5702 140.2 21.9298 140.891 21.9298H150.988C151.679 21.9298 152.321 21.5605 152.672 20.9677L157.706 12.3674C158.056 11.7649 158.056 11.0069 157.706 10.4044L152.672 1.80417Z" fill="white"/>
</g>
<defs>
<linearGradient id="paint0_linear_10_2" x1="13.6579" y1="60.8303" x2="88.1401" y2="60.8303" gradientUnits="userSpaceOnUse">
<stop stop-color="#B22611"/>
<stop offset="0.48" stop-color="#B02510"/>
<stop offset="0.65" stop-color="#A9240F"/>
<stop offset="0.77" stop-color="#9D210E"/>
<stop offset="0.87" stop-color="#8C1E0B"/>
<stop offset="0.96" stop-color="#761A09"/>
<stop offset="1" stop-color="#681707"/>
</linearGradient>
<linearGradient id="paint1_linear_10_2" x1="0.52366" y1="45.8259" x2="75.0059" y2="45.8259" gradientUnits="userSpaceOnUse">
<stop stop-color="#B22611"/>
<stop offset="0.48" stop-color="#B02510"/>
<stop offset="0.65" stop-color="#A9240F"/>
<stop offset="0.77" stop-color="#9D210E"/>
<stop offset="0.87" stop-color="#8C1E0B"/>
<stop offset="0.96" stop-color="#761A09"/>
<stop offset="1" stop-color="#681707"/>
</linearGradient>
<clipPath id="clip0_10_2">
<rect width="157.445" height="96.1579" fill="white" transform="translate(0.523659 0.842102)"/>
</clipPath>
</defs>
</svg>
