<?xml version="1.0" encoding="UTF-8" standalone="no"?>
<!-- Generator: Adobe Illustrator 25.2.1, SVG Export Plug-In . SVG Version: 6.00 Build 0)  -->

<svg
   version="1.1"
   id="Camada_1"
   x="0px"
   y="0px"
   viewBox="0 0 1080 300"
   xml:space="preserve"
   sodipodi:docname="logo-footer.svg"
   width="1080"
   height="300"
   inkscape:version="1.2.2 (b0a8486541, 2022-12-01)"
   xmlns:inkscape="http://www.inkscape.org/namespaces/inkscape"
   xmlns:sodipodi="http://sodipodi.sourceforge.net/DTD/sodipodi-0.dtd"
   xmlns="http://www.w3.org/2000/svg"
   xmlns:svg="http://www.w3.org/2000/svg"><defs
   id="defs186" /><sodipodi:namedview
   id="namedview184"
   pagecolor="#ffffff"
   bordercolor="#000000"
   borderopacity="0.25"
   inkscape:showpageshadow="2"
   inkscape:pageopacity="0"
   inkscape:pagecheckerboard="0"
   inkscape:deskcolor="#d1d1d1"
   showgrid="false"
   inkscape:zoom="0.68796296"
   inkscape:cx="214.40108"
   inkscape:cy="539.27322"
   inkscape:window-width="1920"
   inkscape:window-height="1051"
   inkscape:window-x="1920"
   inkscape:window-y="0"
   inkscape:window-maximized="1"
   inkscape:current-layer="Camada_1" />
<style
   type="text/css"
   id="style2">
	.st0{fill:url(#SVGID_1_);}
	.st1{fill:url(#SVGID_2_);}
	.st2{fill:url(#SVGID_3_);}
	.st3{fill:url(#SVGID_4_);}
	.st4{fill:url(#SVGID_5_);}
	.st5{fill:#FFFFFF;}
	.st6{fill:#F6F6F6;}
</style>
<g
   id="g181"
   transform="translate(-0.56247634,-345.98811)">
	<g
   id="g147">
		<g
   id="g103">
			<g
   id="g38">
				
					<radialGradient
   id="SVGID_1_"
   cx="5.5243001"
   cy="554.32727"
   r="121.626"
   gradientTransform="matrix(1,0,0,-1,0,1080)"
   gradientUnits="userSpaceOnUse">
					<stop
   offset="0.1667"
   style="stop-color:#4775B6"
   id="stop4" />
					<stop
   offset="0.3142"
   style="stop-color:#4977B7"
   id="stop6" />
					<stop
   offset="0.4614"
   style="stop-color:#4D7FB9"
   id="stop8" />
					<stop
   offset="0.6085"
   style="stop-color:#568DBB"
   id="stop10" />
					<stop
   offset="0.7556"
   style="stop-color:#64A0BB"
   id="stop12" />
					<stop
   offset="0.9013"
   style="stop-color:#78B7B7"
   id="stop14" />
					<stop
   offset="1"
   style="stop-color:#89C9B2"
   id="stop16" />
				</radialGradient>
				<path
   class="st0"
   d="m 74.1,612.9 c 8.6,8.6 22.4,8.6 30.9,0 v 0 c 8.6,-8.5 8.6,-22.4 0,-30.9 L 38.8,515.8 c -8.6,-8.6 -22.4,-8.6 -30.9,0 v 0 c -8.6,8.6 -8.6,22.4 0,30.9 l 39.2,39.1 z"
   id="path19"
   style="fill:url(#SVGID_1_)" />
				
					<linearGradient
   id="SVGID_2_"
   gradientUnits="userSpaceOnUse"
   x1="23.990801"
   y1="565.67059"
   x2="177.91589"
   y2="565.67059"
   gradientTransform="matrix(1,0,0,-1,0,1080)">
					<stop
   offset="0"
   style="stop-color:#89C9B2"
   id="stop21" />
					<stop
   offset="9.870000e-02"
   style="stop-color:#78B7B7"
   id="stop23" />
					<stop
   offset="0.2444"
   style="stop-color:#64A0BB"
   id="stop25" />
					<stop
   offset="0.3915"
   style="stop-color:#568DBB"
   id="stop27" />
					<stop
   offset="0.5386"
   style="stop-color:#4D7FB9"
   id="stop29" />
					<stop
   offset="0.6858"
   style="stop-color:#4977B7"
   id="stop31" />
					<stop
   offset="0.8333"
   style="stop-color:#4775B6"
   id="stop33" />
				</linearGradient>
				<path
   class="st1"
   d="m 105.1,449.4 c -8.6,-8.6 -22.4,-8.6 -30.9,0 L 7.9,515.6 C -0.5,524 -1,537.1 7,545.6 l 0.3,0.4 0.4,0.4 c 0,0 0.1,0.1 0.1,0.1 0,0 0.1,0.1 0.1,0.1 l 39.1,39 C 26,564.6 54.2,531 54.2,531 v 0 L 105,480.2 c 8.6,-8.4 8.6,-22.3 0.1,-30.8 z"
   id="path36"
   style="fill:url(#SVGID_2_)" />
			</g>
			<g
   id="g74">
				
					<linearGradient
   id="SVGID_3_"
   gradientUnits="userSpaceOnUse"
   x1="1840.7531"
   y1="5.8815999"
   x2="1950.7765"
   y2="5.8815999"
   gradientTransform="matrix(-1,0,0,1,2920.2148,501.2578)">
					<stop
   offset="9.556049e-03"
   style="stop-color:#8C1456"
   id="stop40" />
					<stop
   offset="0.1343"
   style="stop-color:#8F1B56"
   id="stop42" />
					<stop
   offset="0.3029"
   style="stop-color:#962A56"
   id="stop44" />
					<stop
   offset="0.4966"
   style="stop-color:#A33E56"
   id="stop46" />
					<stop
   offset="0.7091"
   style="stop-color:#B75B51"
   id="stop48" />
					<stop
   offset="0.9344"
   style="stop-color:#D2813B"
   id="stop50" />
					<stop
   offset="1"
   style="stop-color:#DB8E2E"
   id="stop52" />
				</linearGradient>
				<path
   class="st2"
   d="m 1006.8,458.5 c -8.6,-8.6 -22.4,-8.6 -30.9,0 v 0 c -8.6,8.6 -8.6,22.4 0,30.9 l 66.2,66.2 c 8.6,8.6 22.4,8.6 30.9,0 v 0 c 8.6,-8.6 8.6,-22.4 0,-30.9 l -39.2,-39.1 z"
   id="path55"
   style="fill:url(#SVGID_3_)" />
				
					<linearGradient
   id="SVGID_4_"
   gradientUnits="userSpaceOnUse"
   x1="1863.2703"
   y1="55.812"
   x2="2017.1954"
   y2="55.812"
   gradientTransform="matrix(-1,0,0,1,2920.2148,501.2578)">
					<stop
   offset="0"
   style="stop-color:#DB8E2E"
   id="stop57" />
					<stop
   offset="6.560000e-02"
   style="stop-color:#D2813B"
   id="stop59" />
					<stop
   offset="0.2909"
   style="stop-color:#B75B51"
   id="stop61" />
					<stop
   offset="0.5034"
   style="stop-color:#A33E56"
   id="stop63" />
					<stop
   offset="0.6971"
   style="stop-color:#962A56"
   id="stop65" />
					<stop
   offset="0.8657"
   style="stop-color:#8F1B56"
   id="stop67" />
					<stop
   offset="0.9904"
   style="stop-color:#8C1456"
   id="stop69" />
				</linearGradient>
				<path
   class="st3"
   d="m 975.9,622 c 8.6,8.6 22.4,8.6 30.9,0 l 66.2,-66.2 c 8.4,-8.4 8.9,-21.5 0.9,-30 l -0.3,-0.4 -0.4,-0.4 c 0,0 -0.1,-0.1 -0.1,-0.1 0,0 -0.1,-0.1 -0.1,-0.1 l -39.1,-39 c 21,21 -7.2,54.6 -7.2,54.6 v 0 l -50.8,50.8 c -8.6,8.4 -8.6,22.3 0,30.8 z"
   id="path72"
   style="fill:url(#SVGID_4_)" />
			</g>
			
				<linearGradient
   id="SVGID_5_"
   gradientUnits="userSpaceOnUse"
   x1="98.642998"
   y1="477.30679"
   x2="151.39819"
   y2="477.30679"
   gradientTransform="matrix(0.988,0.1544,0.1544,-0.988,-30.4322,986.2719)">
				<stop
   offset="0"
   style="stop-color:#89C9B2"
   id="stop76" />
				<stop
   offset="9.870000e-02"
   style="stop-color:#78B7B7"
   id="stop78" />
				<stop
   offset="0.2444"
   style="stop-color:#64A0BB"
   id="stop80" />
				<stop
   offset="0.3915"
   style="stop-color:#568DBB"
   id="stop82" />
				<stop
   offset="0.5386"
   style="stop-color:#4D7FB9"
   id="stop84" />
				<stop
   offset="0.6858"
   style="stop-color:#4977B7"
   id="stop86" />
				<stop
   offset="0.8333"
   style="stop-color:#4775B6"
   id="stop88" />
			</linearGradient>
			<path
   class="st4"
   d="m 156.7,610.4 c -2.4,7.5 -10.4,11.6 -17.9,9.2 v 0 c -7.5,-2.4 -11.6,-10.4 -9.2,-17.9 l 47.2,-144.2 c 2.4,-7.5 10.4,-11.6 17.9,-9.2 v 0 c 7.5,2.4 11.6,10.4 9.2,17.9 z"
   id="path91"
   style="fill:url(#SVGID_5_)" />
			<path
   class="st5"
   d="m 367.8,465.1 c 2.9,0 5.2,2.7 4.6,5.5 l -17.9,100.1 c -0.4,2.1 -1.4,3.9 -2.8,5.4 -1.4,1.5 -3.3,2.5 -5.3,2.9 -2.1,0.4 -4.2,0.1 -6.1,-0.7 -1.9,-0.8 -3.4,-2.1 -4.5,-3.9 L 298.3,513 260.8,574.5 c -0.9,1.5 -2.1,2.7 -3.7,3.5 -1.7,0.9 -3.5,1.3 -5.5,1.2 -2,-0.1 -3.9,-0.8 -5.4,-1.9 -2.2,-1.6 -3.6,-3.8 -4,-6.6 l -17.7,-98.5 c -0.7,-3.7 2.2,-7.2 6,-7.2 h 10.4 c 1.8,0 3.3,1.3 3.6,3 l 13,71.4 32.2,-51.4 c 0.9,-1.5 2.1,-2.7 3.7,-3.5 1.6,-0.8 3.2,-1.2 5,-1.2 1.8,0 3.4,0.4 5,1.2 1.5,0.8 2.8,2 3.8,3.5 l 32.1,51.4 12.8,-70.4 c 0.4,-2.3 2.5,-4.1 4.9,-4.1 z"
   id="path93" />
			<path
   class="st5"
   d="m 413.3,577.8 h -6.4 c -3.9,0 -7,-3.1 -7,-7 v -98.7 c 0,-3.9 3.1,-7 7,-7 h 6.4 c 3.9,0 7,3.1 7,7 v 98.7 c 0.1,3.9 -3.1,7 -7,7 z m 87.4,0 h -8.8 c -1.9,0 -3.7,-0.7 -5,-2.1 l -41.9,-42 c -1.3,-1.3 -3.1,-2.1 -5,-2.1 h -4.5 c -3.9,0 -7,-3.1 -7,-7 V 518 c 0,-3.9 3.1,-7 7,-7 h 4.5 c 1.9,0 3.7,-0.7 5,-2.1 l 41.9,-42 c 1.3,-1.3 3.1,-2.1 5,-2.1 h 8.8 c 6.3,0 9.4,7.7 4.9,12 l -40.4,39.3 c -2.8,2.8 -2.8,7.3 0,10.1 l 40.4,39.3 c 4.5,4.7 1.4,12.3 -4.9,12.3 z"
   id="path95" />
			<path
   class="st5"
   d="m 654.4,532.2 c 0,6.9 -1.2,13.2 -3.5,19 -2.4,5.8 -5.6,10.7 -9.8,14.9 -4.2,4.2 -9.2,7.5 -14.9,9.8 -5.7,2.3 -12,3.5 -18.8,3.5 h -27.7 c -6.8,0 -13,-1.2 -18.8,-3.5 -5.8,-2.3 -10.7,-5.6 -14.9,-9.8 -4.2,-4.2 -7.5,-9.2 -9.9,-14.9 -2.4,-5.8 -3.6,-12.1 -3.6,-19 v -21.5 c 0,-6.8 1.2,-13.1 3.6,-18.9 2.4,-5.8 5.7,-10.8 9.9,-14.9 4.2,-4.2 9.2,-7.4 14.9,-9.8 5.8,-2.4 12,-3.5 18.8,-3.5 h 27.7 c 6.8,0 13,1.2 18.8,3.5 5.7,2.4 10.7,5.6 14.9,9.8 4.2,4.2 7.5,9.2 9.8,14.9 2.4,5.8 3.5,12.1 3.5,18.9 z M 634,510.7 c 0,-4 -0.6,-7.7 -1.9,-11 -1.3,-3.3 -3.1,-6.1 -5.4,-8.4 -2.3,-2.3 -5.1,-4.1 -8.4,-5.4 -3.3,-1.3 -6.9,-1.9 -10.8,-1.9 h -27.7 c -4,0 -7.6,0.6 -10.9,1.9 -3.3,1.3 -6.1,3.1 -8.5,5.4 -2.4,2.3 -4.2,5.1 -5.5,8.4 -1.3,3.3 -1.9,6.9 -1.9,11 v 21.5 c 0,4 0.6,7.7 1.9,11 1.3,3.3 3.1,6.1 5.5,8.4 2.4,2.3 5.2,4.1 8.5,5.4 3.3,1.3 6.9,1.9 10.9,1.9 h 27.5 c 4,0 7.6,-0.6 10.9,-1.9 3.3,-1.3 6.1,-3.1 8.5,-5.4 2.4,-2.3 4.2,-5.1 5.5,-8.4 1.3,-3.3 1.9,-6.9 1.9,-11 z"
   id="path97" />
			<path
   class="st5"
   d="m 796,530.6 c 0,6.9 -1.2,13.2 -3.6,19 -2.4,5.8 -5.7,10.7 -9.9,14.9 -4.2,4.2 -9.2,7.4 -14.9,9.8 -5.8,2.4 -12,3.5 -18.8,3.5 h -55.2 c -1.5,0 -2.8,-0.3 -4.1,-0.8 -1.2,-0.5 -2.3,-1.2 -3.3,-2.2 -0.9,-0.9 -1.6,-2 -2.2,-3.3 -0.5,-1.2 -0.8,-2.6 -0.8,-4.1 v -92.2 c 0,-1.4 0.3,-2.8 0.8,-4 0.5,-1.2 1.2,-2.4 2.2,-3.3 0.9,-0.9 2,-1.7 3.3,-2.2 1.2,-0.5 2.6,-0.8 4.1,-0.8 h 55.2 c 6.8,0 13,1.2 18.8,3.5 5.8,2.4 10.7,5.6 14.9,9.8 4.2,4.2 7.5,9.2 9.9,14.9 2.4,5.8 3.6,12.1 3.6,18.9 z m -20.4,-18.3 c 0,-4 -0.6,-7.6 -1.9,-10.9 -1.3,-3.3 -3.1,-6.1 -5.5,-8.5 -2.4,-2.3 -5.2,-4.1 -8.5,-5.4 -3.3,-1.3 -6.9,-1.9 -10.9,-1.9 h -45.1 v 71.9 h 45.1 c 4,0 7.6,-0.6 10.9,-1.9 3.3,-1.3 6.1,-3.1 8.5,-5.4 2.4,-2.3 4.2,-5.1 5.5,-8.4 1.3,-3.3 1.9,-6.9 1.9,-11 z"
   id="path99" />
			<path
   class="st5"
   d="m 926.8,573 c 0,2.7 -2.1,4.8 -4.8,4.8 h -69 c -2.8,0 -5.9,-0.5 -9.3,-1.5 -3.4,-1 -6.5,-2.6 -9.3,-4.9 -2.9,-2.3 -5.2,-5.2 -7.1,-8.9 -1.9,-3.7 -2.9,-8.1 -2.9,-13.4 v -73.8 c 0,-1.4 0.3,-2.8 0.8,-4 0.5,-1.2 1.2,-2.4 2.2,-3.3 0.9,-0.9 2,-1.7 3.3,-2.2 1.2,-0.5 2.6,-0.8 4.1,-0.8 H 922 c 2.7,0 4.8,2.1 4.8,4.8 v 10.8 c 0,2.7 -2.1,4.8 -4.8,4.8 h -72.3 c -2.7,0 -4.8,2.1 -4.8,4.8 V 549 c 0,2.7 0.7,4.7 2.1,6.1 1.4,1.4 3.5,2.1 6.2,2.1 H 922 c 2.7,0 4.8,2.1 4.8,4.8 z m -14,-41.3 h -54.9 c -2.7,0 -4.8,-2.1 -4.8,-4.8 v -11 c 0,-2.7 2.1,-4.8 4.8,-4.8 h 54.9 c 2.7,0 4.8,2.1 4.8,4.8 v 11 c 0,2.7 -2.1,4.8 -4.8,4.8 z"
   id="path101" />
		</g>
		<g
   id="g145">
			<path
   class="st5"
   d="m 237.1,636.5 v -8.9 l -4.4,7.3 h -1.5 l -4.3,-7.1 v 8.7 h -3.2 v -14.8 h 2.8 l 5.5,9.2 5.5,-9.2 h 2.8 v 14.8 z"
   id="path105" />
			<path
   class="st5"
   d="m 272.4,633.3 h -6.9 l -1.3,3.2 h -3.5 l 6.6,-14.8 h 3.4 l 6.6,14.8 h -3.6 z m -1.1,-2.5 -2.3,-5.7 -2.3,5.7 z"
   id="path107" />
			<path
   class="st5"
   d="m 307.1,636.5 -2.9,-4.1 h -0.2 -3 v 4.1 h -3.4 v -14.8 h 6.4 c 4,0 6.4,2.1 6.4,5.4 0,2.2 -1.1,3.8 -3,4.7 l 3.3,4.8 z m -3.2,-12 h -2.8 v 5.2 h 2.8 c 2.1,0 3.2,-1 3.2,-2.6 0,-1.6 -1.1,-2.6 -3.2,-2.6 z"
   id="path109" />
			<path
   class="st5"
   d="m 337.5,630.7 -2,2.1 v 3.7 h -3.4 v -14.8 h 3.4 v 6.9 l 6.6,-6.9 h 3.8 l -6.2,6.6 6.5,8.2 h -4 z"
   id="path111" />
			<path
   class="st5"
   d="m 378.1,633.8 v 2.8 h -11.5 v -14.8 h 11.2 v 2.8 H 370 v 3.2 h 6.9 v 2.7 H 370 v 3.4 z"
   id="path113" />
			<path
   class="st5"
   d="M 402.7,624.5 H 398 v -2.8 h 12.9 v 2.8 h -4.7 v 12 h -3.4 v -12 z"
   id="path115" />
			<path
   class="st5"
   d="m 431.5,621.7 h 3.4 v 14.8 h -3.4 z"
   id="path117" />
			<path
   class="st5"
   d="m 470.9,621.7 v 14.8 h -2.8 l -7.4,-9 v 9 h -3.4 v -14.8 h 2.8 l 7.4,9 v -9 z"
   id="path119" />
			<path
   class="st5"
   d="m 503.2,628.9 h 3.1 v 6 c -1.6,1.2 -3.9,1.9 -6,1.9 -4.7,0 -8.1,-3.2 -8.1,-7.7 0,-4.5 3.4,-7.7 8.2,-7.7 2.6,0 4.8,0.9 6.2,2.6 l -2.2,2 c -1.1,-1.2 -2.3,-1.7 -3.8,-1.7 -2.9,0 -4.8,1.9 -4.8,4.7 0,2.8 2,4.7 4.8,4.7 0.9,0 1.8,-0.2 2.7,-0.6 z"
   id="path121" />
			<path
   class="st5"
   d="m 564.7,633.8 v 2.8 h -11.5 v -14.8 h 11.2 v 2.8 h -7.8 v 3.2 h 6.9 v 2.7 h -6.9 v 3.4 z"
   id="path123" />
			<path
   class="st5"
   d="m 614.1,624.5 h -4.7 v -2.8 h 12.9 v 2.8 h -4.7 v 12 h -3.4 v -12 z"
   id="path125" />
			<path
   class="st5"
   d="m 654.5,633.8 v 2.8 H 643 v -14.8 h 11.2 v 2.8 h -7.8 v 3.2 h 6.9 v 2.7 h -6.9 v 3.4 z"
   id="path127" />
			<path
   class="st5"
   d="m 675,629.1 c 0,-4.5 3.4,-7.7 8,-7.7 2.6,0 4.7,0.9 6.1,2.6 l -2.2,2 c -1,-1.2 -2.2,-1.7 -3.7,-1.7 -2.8,0 -4.7,2 -4.7,4.7 0,2.8 2,4.7 4.7,4.7 1.5,0 2.7,-0.6 3.7,-1.8 l 2.2,2 c -1.4,1.7 -3.5,2.7 -6.1,2.7 -4.5,0.2 -8,-3 -8,-7.5 z"
   id="path129" />
			<path
   class="st5"
   d="m 723.9,621.7 v 14.8 h -2.8 l -7.4,-9 v 9 h -3.4 v -14.8 h 2.8 l 7.4,9 v -9 z"
   id="path131" />
			<path
   class="st5"
   d="m 745.3,629.1 c 0,-4.4 3.4,-7.7 8.1,-7.7 4.7,0 8.1,3.2 8.1,7.7 0,4.4 -3.5,7.7 -8.1,7.7 -4.6,0 -8.1,-3.3 -8.1,-7.7 z m 12.8,0 c 0,-2.8 -2,-4.7 -4.6,-4.7 -2.7,0 -4.6,1.9 -4.6,4.7 0,2.8 2,4.7 4.6,4.7 2.6,0.1 4.6,-1.9 4.6,-4.7 z"
   id="path133" />
			<path
   class="st5"
   d="m 782.9,621.7 h 3.4 v 12 h 7.4 v 2.8 h -10.9 v -14.8 z"
   id="path135" />
			<path
   class="st5"
   d="m 813.4,629.1 c 0,-4.4 3.4,-7.7 8.1,-7.7 4.7,0 8.1,3.2 8.1,7.7 0,4.4 -3.5,7.7 -8.1,7.7 -4.7,0 -8.1,-3.3 -8.1,-7.7 z m 12.7,0 c 0,-2.8 -2,-4.7 -4.6,-4.7 -2.7,0 -4.6,1.9 -4.6,4.7 0,2.8 2,4.7 4.6,4.7 2.6,0.1 4.6,-1.9 4.6,-4.7 z"
   id="path137" />
			<path
   class="st5"
   d="m 861,628.9 h 3.1 v 6 c -1.6,1.2 -3.9,1.9 -6,1.9 -4.7,0 -8.1,-3.2 -8.1,-7.7 0,-4.5 3.4,-7.7 8.2,-7.7 2.6,0 4.8,0.9 6.2,2.6 l -2.2,2 c -1.1,-1.2 -2.3,-1.7 -3.8,-1.7 -2.9,0 -4.8,1.9 -4.8,4.7 0,2.8 2,4.7 4.8,4.7 0.9,0 1.8,-0.2 2.7,-0.6 z"
   id="path139" />
			<path
   class="st5"
   d="m 886.2,621.7 h 3.4 v 14.8 h -3.4 z"
   id="path141" />
			<path
   class="st5"
   d="m 921.7,633.3 h -6.9 l -1.3,3.2 H 910 l 6.6,-14.8 h 3.4 l 6.6,14.8 H 923 Z m -1.1,-2.5 -2.3,-5.7 -2.3,5.7 z"
   id="path143" />
		</g>
	</g>
	<g
   id="g179">
		<path
   class="st6"
   d="m 70,408.3 v -52.5 h 22.1 c 8.4,0 15.3,2.4 20.5,7.3 5.2,4.8 7.8,11.2 7.8,19 0,7.8 -2.6,14.1 -7.8,19 -5.2,4.8 -12,7.3 -20.5,7.3 z m 7.5,-6.5 h 14.2 c 6.4,0 11.6,-1.8 15.5,-5.4 3.9,-3.6 5.8,-8.4 5.8,-14.3 0,-5.9 -1.9,-10.7 -5.8,-14.3 -3.9,-3.6 -9,-5.4 -15.5,-5.4 H 77.5 Z"
   id="path149" />
		<path
   class="st6"
   d="m 187.7,388.7 c 0,0.5 -0.1,1.3 -0.2,2.2 h -32.2 c 0.4,3.5 2,6.3 4.6,8.4 2.6,2.1 5.9,3.2 9.8,3.2 4.7,0 8.6,-1.6 11.5,-4.8 l 4,4.6 c -3.7,4.3 -8.9,6.4 -15.7,6.4 -6.3,0 -11.5,-1.9 -15.4,-5.7 -3.9,-3.8 -5.9,-8.7 -5.9,-14.6 0,-5.8 1.9,-10.7 5.7,-14.5 3.8,-3.8 8.5,-5.7 14.3,-5.7 5.8,0 10.4,1.9 14.1,5.7 3.5,3.7 5.4,8.7 5.4,14.8 z m -11,-11.2 c -2.3,-2.1 -5.2,-3.2 -8.6,-3.2 -3.4,0 -6.3,1.1 -8.6,3.1 -2.3,2.1 -3.7,4.8 -4.1,8.2 h 25.5 c -0.5,-3.3 -1.9,-6 -4.2,-8.1 z"
   id="path151" />
		<path
   class="st6"
   d="m 229.9,408.7 c -3.2,0 -6.4,-0.4 -9.4,-1.3 -3,-0.9 -5.3,-2 -7,-3.3 l 3,-5.7 c 3.8,2.8 8.5,4.1 13.9,4.1 6.3,0 9.5,-1.8 9.5,-5.4 0,-1.4 -0.6,-2.5 -1.9,-3.3 -1.2,-0.8 -2.8,-1.3 -4.6,-1.6 -1.8,-0.3 -3.9,-0.6 -6,-1.1 -2.1,-0.5 -4.2,-1 -6,-1.6 -1.9,-0.6 -3.4,-1.8 -4.6,-3.4 -1.2,-1.6 -1.9,-3.7 -1.9,-6.1 0,-3.6 1.5,-6.5 4.5,-8.6 3,-2.2 7,-3.3 12.1,-3.3 5.9,0 10.8,1.2 14.5,3.6 l -3.1,5.7 c -3.2,-2.1 -7.1,-3.1 -11.5,-3.1 -3,0 -5.4,0.5 -7,1.5 -1.6,1 -2.4,2.3 -2.4,4 0,1.7 0.9,3 2.6,3.9 1.7,0.9 3.8,1.5 6.3,1.9 2.5,0.4 4.9,0.8 7.4,1.4 2.5,0.5 4.6,1.6 6.3,3.3 1.7,1.7 2.6,3.9 2.6,6.8 0,3.6 -1.5,6.5 -4.6,8.6 -3.2,2 -7.4,3 -12.7,3 z"
   id="path153" />
		<path
   class="st6"
   d="m 312.9,388.7 c 0,0.5 -0.1,1.3 -0.2,2.2 h -32.2 c 0.4,3.5 2,6.3 4.6,8.4 2.6,2.1 5.9,3.2 9.8,3.2 4.7,0 8.6,-1.6 11.5,-4.8 l 4,4.6 c -3.7,4.3 -8.9,6.4 -15.7,6.4 -6.3,0 -11.5,-1.9 -15.4,-5.7 -3.9,-3.8 -5.9,-8.7 -5.9,-14.6 0,-5.8 1.9,-10.7 5.7,-14.5 3.8,-3.8 8.5,-5.7 14.3,-5.7 5.7,0 10.4,1.9 14.1,5.7 3.6,3.7 5.4,8.7 5.4,14.8 z m -11,-11.2 c -2.3,-2.1 -5.2,-3.2 -8.6,-3.2 -3.4,0 -6.3,1.1 -8.6,3.1 -2.3,2.1 -3.7,4.8 -4.1,8.2 H 306 c -0.4,-3.3 -1.7,-6 -4.1,-8.1 z"
   id="path155" />
		<path
   class="st6"
   d="m 365,368.2 c 5,0 9.1,1.5 12,4.4 3,2.9 4.5,7.2 4.5,12.8 v 22.9 h -7.2 v -22 c 0,-3.8 -0.9,-6.8 -2.8,-8.7 -1.9,-2 -4.5,-2.9 -7.9,-2.9 -3.9,0 -7,1.1 -9.2,3.4 -2.2,2.3 -3.4,5.5 -3.4,9.8 v 20.5 h -7.2 v -39.7 h 6.9 v 6 c 3,-4.4 7.8,-6.5 14.3,-6.5 z"
   id="path157" />
		<path
   class="st6"
   d="m 443.8,368.6 h 7 l -17.4,39.7 h -7.3 l -17.4,-39.7 h 7.5 l 13.6,31.8 z"
   id="path159" />
		<path
   class="st6"
   d="m 495.6,408.7 c -6,0 -10.9,-1.9 -14.8,-5.7 -3.9,-3.8 -5.8,-8.7 -5.8,-14.6 0,-5.9 2,-10.7 5.8,-14.5 3.9,-3.8 8.8,-5.7 14.8,-5.7 6,0 10.9,1.9 14.8,5.7 3.9,3.8 5.8,8.6 5.8,14.5 0,5.9 -2,10.8 -5.8,14.6 -3.8,3.8 -8.9,5.7 -14.8,5.7 z m 0,-6.3 c 3.8,0 7,-1.3 9.5,-3.9 2.5,-2.6 3.8,-6 3.8,-10.2 0,-4.2 -1.2,-7.6 -3.7,-10.1 -2.5,-2.5 -5.7,-3.8 -9.6,-3.8 -3.9,0 -7.1,1.3 -9.6,3.8 -2.5,2.6 -3.8,5.9 -3.8,10.1 0,4.2 1.3,7.6 3.8,10.2 2.4,2.7 5.7,3.9 9.6,3.9 z"
   id="path161" />
		<path
   class="st6"
   d="m 547,408.3 v -55.6 h 7.2 v 55.6 z"
   id="path163" />
		<path
   class="st6"
   d="m 617,368.6 h 7 l -17.4,39.7 h -7.3 l -17.4,-39.7 h 7.5 l 13.6,31.8 z"
   id="path165" />
		<path
   class="st6"
   d="m 658.7,359.5 c -0.9,0.9 -2.1,1.4 -3.5,1.4 -1.4,0 -2.6,-0.4 -3.5,-1.3 -0.9,-0.9 -1.4,-2 -1.4,-3.3 0,-1.3 0.5,-2.4 1.4,-3.3 0.9,-0.9 2.1,-1.4 3.5,-1.4 1.4,0 2.6,0.4 3.5,1.3 0.9,0.9 1.4,2 1.4,3.3 0,1.3 -0.4,2.4 -1.4,3.3 z m -7,48.8 v -39.7 h 7.2 v 39.7 z"
   id="path167" />
		<path
   class="st6"
   d="m 723.8,352.7 h 7.2 v 55.6 h -6.9 V 402 c -3.2,4.5 -8,6.8 -14.2,6.8 -5.8,0 -10.7,-1.9 -14.4,-5.6 -3.7,-3.7 -5.7,-8.6 -5.7,-14.7 0,-6 1.9,-10.9 5.7,-14.6 3.8,-3.7 8.6,-5.6 14.4,-5.6 6,0 10.6,2.1 13.9,6.4 z m -13.3,49.7 c 3.8,0 7,-1.3 9.5,-3.9 2.5,-2.6 3.8,-6 3.8,-10.2 0,-4.1 -1.3,-7.5 -3.8,-10.1 -2.5,-2.6 -5.7,-3.9 -9.5,-3.9 -3.9,0 -7.1,1.3 -9.6,3.8 -2.5,2.5 -3.8,5.9 -3.8,10.1 0,4.2 1.3,7.6 3.8,10.2 2.5,2.8 5.7,4 9.6,4 z"
   id="path169" />
		<path
   class="st6"
   d="m 782.5,408.7 c -6,0 -10.9,-1.9 -14.8,-5.7 -3.9,-3.8 -5.8,-8.7 -5.8,-14.6 0,-5.9 2,-10.7 5.8,-14.5 3.9,-3.8 8.8,-5.7 14.8,-5.7 6,0 10.9,1.9 14.8,5.7 3.9,3.8 5.8,8.6 5.8,14.5 0,5.9 -2,10.8 -5.8,14.6 -3.9,3.8 -8.8,5.7 -14.8,5.7 z m 0,-6.3 c 3.8,0 7,-1.3 9.5,-3.9 2.5,-2.6 3.8,-6 3.8,-10.2 0,-4.2 -1.2,-7.6 -3.7,-10.1 -2.5,-2.5 -5.7,-3.8 -9.6,-3.8 -3.9,0 -7.1,1.3 -9.6,3.8 -2.5,2.5 -3.8,5.9 -3.8,10.1 0,4.2 1.3,7.6 3.8,10.2 2.5,2.7 5.7,3.9 9.6,3.9 z"
   id="path171" />
		<path
   class="st6"
   d="m 875.6,368.2 c 5.8,0 10.7,1.9 14.4,5.6 3.7,3.7 5.7,8.6 5.7,14.6 0,6.1 -1.9,10.9 -5.7,14.7 -3.8,3.7 -8.6,5.6 -14.4,5.6 -6,0 -10.6,-2.1 -13.9,-6.4 v 20.5 h -7.2 v -54.3 h 6.9 v 6.3 c 3.3,-4.4 8,-6.6 14.2,-6.6 z m -0.6,34.2 c 3.9,0 7.1,-1.3 9.6,-3.9 2.5,-2.6 3.8,-6 3.8,-10.2 0,-4.1 -1.3,-7.5 -3.8,-10.1 -2.5,-2.6 -5.7,-3.9 -9.6,-3.9 -3.8,0 -7,1.3 -9.5,3.9 -2.5,2.6 -3.8,5.9 -3.8,10.1 0,4.2 1.3,7.6 3.8,10.2 2.5,2.7 5.7,3.9 9.5,3.9 z"
   id="path173" />
		<path
   class="st6"
   d="m 943.6,408.7 c -6,0 -10.9,-1.9 -14.8,-5.7 -3.9,-3.8 -5.8,-8.7 -5.8,-14.6 0,-5.9 2,-10.7 5.8,-14.5 3.9,-3.8 8.8,-5.7 14.8,-5.7 6,0 10.9,1.9 14.8,5.7 3.9,3.8 5.8,8.6 5.8,14.5 0,5.9 -2,10.8 -5.8,14.6 -3.9,3.8 -8.9,5.7 -14.8,5.7 z m 0,-6.3 c 3.8,0 7,-1.3 9.5,-3.9 2.5,-2.6 3.8,-6 3.8,-10.2 0,-4.2 -1.2,-7.6 -3.7,-10.1 -2.5,-2.5 -5.7,-3.8 -9.6,-3.8 -3.9,0 -7.1,1.3 -9.6,3.8 -2.5,2.6 -3.8,5.9 -3.8,10.1 0,4.2 1.3,7.6 3.8,10.2 2.5,2.7 5.7,3.9 9.6,3.9 z"
   id="path175" />
		<path
   class="st6"
   d="m 1002,375.2 c 2.6,-4.7 7.4,-7 14.5,-7 v 7 c -0.4,-0.1 -1,-0.1 -1.6,-0.1 -3.9,0 -7,1.2 -9.2,3.5 -2.2,2.3 -3.3,5.6 -3.3,9.9 v 19.8 h -7.2 v -39.7 h 6.9 z"
   id="path177" />
	</g>
</g>
</svg>
