<svg xmlns="http://www.w3.org/2000/svg" viewBox="0 0 149.86 108.04"><defs><style>.cls-1{fill:#fff;}.cls-1,.cls-2{stroke:#b22611;stroke-miterlimit:10;}.cls-2{fill:#b22611;}</style></defs><g id="Layer_2" data-name="Layer 2"><g id="Camada_1" data-name="Camada 1"><path class="cls-1" d="M93.1,78.17V1.59h19.23V75.35c0,10.63.62,12.35,8.12,12.35v17C95.76,104.73,93.1,92.39,93.1,78.17Z"/><path class="cls-1" d="M139.36.5c5.78,0,10,4.06,10,9.38a9.68,9.68,0,0,1-10,9.53c-6.25,0-10.47-4.38-10.47-9.53C128.89,4.56,133.11.5,139.36.5Zm-10,25h19.22l-.16,79.23H129.2Z"/><path class="cls-2" d="M2.18,55a41.07,41.07,0,1,0,78.87,0A41.08,41.08,0,0,1,2.18,55Z"/><path class="cls-2" d="M41.61,20.49A23,23,0,0,0,21.69,55a23,23,0,0,1,39.85,0A23,23,0,0,0,41.61,20.49Z"/><path class="cls-2" d="M41.61,84.47A41.11,41.11,0,0,1,12.54,14.29,41.11,41.11,0,1,1,70.69,72.43,40.84,40.84,0,0,1,41.61,84.47Zm0-82.13a41,41,0,1,0,41,41A41.06,41.06,0,0,0,41.61,2.34Z"/></g></g></svg>