<svg width="189" height="116" viewBox="0 0 189 116" fill="none" xmlns="http://www.w3.org/2000/svg">
<path d="M15.7628 100.051C25.4637 109.929 39.0683 115.972 54.1222 115.656C81.6354 115.084 104.205 92.78 105.14 65.2628C105.619 51.2002 100.511 38.3067 91.8506 28.6394L62.818 78.5187L62.7829 78.4953C62.1985 79.2201 61.3103 79.6526 60.3752 79.6526H45.3681C44.246 79.676 43.2175 79.0681 42.6682 78.0979L35.41 65.2861L15.7744 100.051H15.7628Z" fill="url(#paint0_linear_1_36)"/>
<path d="M89.4079 26.2197C79.707 16.342 66.1023 10.2985 51.0484 10.6141C23.5235 11.1869 0.954329 33.4906 0.0309896 60.9961C-0.448212 75.0586 4.65937 87.9522 13.3201 97.6194L42.3527 47.7401L42.3877 47.7635C42.9721 47.0387 43.8604 46.6062 44.7954 46.6062H59.8026C60.9246 46.5829 61.9532 47.1907 62.5025 48.1609L69.7606 60.9727L89.3962 26.208L89.4079 26.2197Z" fill="url(#paint1_linear_1_36)"/>
<path d="M144.049 7.77359V115.516H119.153V7.77359H144.049Z" fill="#071927"/>
<path d="M186.99 34.2738V115.516H162.095V34.2738H186.99Z" fill="#071927"/>
<path d="M182.642 1.15727C182.221 0.432513 181.45 0 180.62 0H168.5C167.67 0 166.898 0.444203 166.478 1.15727L160.435 11.5025C160.014 12.2273 160.014 13.1391 160.435 13.8638L166.478 24.2091C166.898 24.9338 167.67 25.3663 168.5 25.3663H180.62C181.45 25.3663 182.221 24.9221 182.642 24.2091L188.684 13.8638C189.105 13.1391 189.105 12.2273 188.684 11.5025L182.642 1.15727Z" fill="#071927"/>
<defs>
<linearGradient id="paint0_linear_1_36" x1="15.7628" y1="72.1596" x2="105.175" y2="72.1596" gradientUnits="userSpaceOnUse">
<stop stop-color="#B22611"/>
<stop offset="0.48" stop-color="#B02510"/>
<stop offset="0.65" stop-color="#A9240F"/>
<stop offset="0.77" stop-color="#9D210E"/>
<stop offset="0.87" stop-color="#8C1E0B"/>
<stop offset="0.96" stop-color="#761A09"/>
<stop offset="1" stop-color="#681707"/>
</linearGradient>
<linearGradient id="paint1_linear_1_36" x1="-0.0040739" y1="54.1109" x2="89.4079" y2="54.1109" gradientUnits="userSpaceOnUse">
<stop stop-color="#07193E"/>
<stop offset="0.51" stop-color="#07192F"/>
<stop offset="1" stop-color="#071927"/>
</linearGradient>
</defs>
</svg>
