<svg width="87" height="83" viewBox="0 0 87 83" fill="none" xmlns="http://www.w3.org/2000/svg">
<g filter="url(#filter0_d_36_13)">
<path d="M12.0035 65.6946C19.0561 72.8451 28.9467 77.2199 39.891 76.9915C59.8932 76.5768 76.3012 60.4312 76.9809 40.5116C77.3293 30.3317 73.6161 20.9981 67.3197 14L46.2129 50.1075L46.1874 50.0906C45.7625 50.6153 45.1168 50.9284 44.437 50.9284H33.5267C32.711 50.9453 31.9632 50.5053 31.5638 49.8029L26.2871 40.5285L12.012 65.6946H12.0035Z" fill="white"/>
</g>
<g filter="url(#filter1_d_36_13)">
<path d="M65.0035 11.3054C57.9509 4.15494 48.0602 -0.219942 37.1159 0.00853297C17.1052 0.423173 0.697281 16.5688 0.0260086 36.4884C-0.322373 46.6683 3.39087 56.0019 9.68723 63L30.7941 26.8925L30.8196 26.9094C31.2444 26.3847 31.8902 26.0716 32.57 26.0716H43.4803C44.296 26.0547 45.0437 26.4947 45.4431 27.1971L50.7198 36.4715L64.995 11.3054H65.0035Z" fill="white"/>
</g>
<defs>
<filter id="filter0_d_36_13" x="12.0035" y="10.4" width="74.6" height="72.2" filterUnits="userSpaceOnUse" color-interpolation-filters="sRGB">
<feFlood flood-opacity="0" result="BackgroundImageFix"/>
<feColorMatrix in="SourceAlpha" type="matrix" values="0 0 0 0 0 0 0 0 0 0 0 0 0 0 0 0 0 0 127 0" result="hardAlpha"/>
<feOffset dx="5" dy="1"/>
<feGaussianBlur stdDeviation="2.3"/>
<feComposite in2="hardAlpha" operator="out"/>
<feColorMatrix type="matrix" values="0 0 0 0 0.0235294 0 0 0 0 0.223529 0 0 0 0 0.6 0 0 0 0.3 0"/>
<feBlend mode="normal" in2="BackgroundImageFix" result="effect1_dropShadow_36_13"/>
<feBlend mode="normal" in="SourceGraphic" in2="effect1_dropShadow_36_13" result="shape"/>
</filter>
<filter id="filter1_d_36_13" x="-3.99652" y="0" width="73" height="71" filterUnits="userSpaceOnUse" color-interpolation-filters="sRGB">
<feFlood flood-opacity="0" result="BackgroundImageFix"/>
<feColorMatrix in="SourceAlpha" type="matrix" values="0 0 0 0 0 0 0 0 0 0 0 0 0 0 0 0 0 0 127 0" result="hardAlpha"/>
<feOffset dy="4"/>
<feGaussianBlur stdDeviation="2"/>
<feComposite in2="hardAlpha" operator="out"/>
<feColorMatrix type="matrix" values="0 0 0 0 0.0235294 0 0 0 0 0.223529 0 0 0 0 0.6 0 0 0 0.3 0"/>
<feBlend mode="normal" in2="BackgroundImageFix" result="effect1_dropShadow_36_13"/>
<feBlend mode="normal" in="SourceGraphic" in2="effect1_dropShadow_36_13" result="shape"/>
</filter>
</defs>
</svg>
