<svg width="328" height="406" viewBox="0 0 328 406" fill="none" xmlns="http://www.w3.org/2000/svg">
<ellipse cx="159.984" cy="223.681" rx="146.015" ry="146.291" fill="#7E2D2D"/>
<path d="M1.38232 102.353C1.38232 104.798 2.65313 112.284 3.28853 115.722V118.396H26.5442C26.163 110.12 25.3243 92.1933 25.0193 86.693C24.638 79.8178 20.8256 73.7064 17.7757 79.0538C15.3357 83.3318 16.759 94.0775 17.7757 98.9156C17.3945 98.1517 16.1745 96.7767 14.3445 97.3878C12.5146 97.999 12.5654 100.953 12.8196 102.353C12.5654 101.589 11.5233 99.8323 9.38839 98.9156C7.25344 97.9989 6.7197 100.825 6.7197 102.353C5.57598 100.062 1.38232 99.2977 1.38232 102.353Z" fill="#ECD2B4"/>
<path d="M110.799 67.5962C83.9593 117.098 95.0407 181.93 103.936 208.157C124.015 220.635 171.187 244.062 199.246 237.95C227.306 231.839 239.912 191.606 242.708 172.253C239.404 146.535 231.423 92.5 225.933 82.1106C219.071 69.124 144.348 5.71863 110.799 67.5962Z" fill="#ECD2B4"/>
<path d="M192.382 78.2903C135.044 96.0132 100.376 70.9057 90.2099 56.1366C81.6701 42.6916 81.0601 25.0705 81.8225 17.9406C110.034 44.6778 132.146 12.5931 171.033 2.66215C202.142 -5.28262 217.544 17.1766 221.357 29.3994C242.706 20.2323 264.056 29.3994 260.243 78.2903C257.193 117.403 246.265 153.154 241.181 166.141C233.302 151.881 219.222 123.362 225.932 123.362C234.319 123.362 232.794 111.139 225.932 104.264C220.442 98.7633 213.478 106.555 210.682 111.139L192.382 78.2903Z" fill="#1C1B1F" stroke="black"/>
<path d="M250.332 174.544H89.4479C84.6189 189.823 70.5384 217.782 52.8488 207.393C35.1592 197.003 31.2451 141.95 31.4993 115.722H1C5.57489 143.478 19.6046 204.031 39.1241 224.199C58.6437 244.366 80.8065 226.491 89.4479 215.032L92.4979 305.175L241.944 309.758L250.332 207.393C253.127 209.43 260.854 214.574 269.394 234.13C277.934 253.686 265.836 287.604 258.719 302.119L279.306 309.758C284.135 293.206 292.268 252.158 286.168 220.379C280.069 188.6 259.736 182.183 250.332 182.947V174.544Z" fill="white" stroke="#C89E9E"/>
<path d="M169.884 137.492C155.244 134.436 134.555 136.219 126.041 137.492C127.947 143.985 131.378 157.354 151.584 156.972C167.749 156.666 170.519 143.858 169.884 137.492Z" fill="#333333"/>
<ellipse cx="122.229" cy="112.283" rx="3.81241" ry="8.02116" fill="#333333"/>
<ellipse cx="179.417" cy="112.283" rx="3.81241" ry="8.02116" fill="#333333"/>
<rect width="69.2316" height="99.1073" rx="14" transform="matrix(0.306595 -0.95184 0.951502 0.307643 212.213 295.443)" fill="#7B9789"/>
<rect width="53.988" height="81.6588" transform="matrix(0.306595 -0.95184 0.951502 0.307643 223.183 290.978)" fill="#D9D9D9"/>
<line y1="-0.5" x2="41.9201" y2="-0.5" transform="matrix(0.306595 -0.95184 0.951502 0.307643 234.423 287.939)" stroke="#979797"/>
<line y1="-0.5" x2="41.9201" y2="-0.5" transform="matrix(0.306595 -0.95184 0.951502 0.307643 239.736 289.656)" stroke="#979797"/>
<line y1="-0.5" x2="41.9201" y2="-0.5" transform="matrix(0.306595 -0.95184 0.951502 0.307643 245.048 291.373)" stroke="#979797"/>
<line y1="-0.5" x2="41.9201" y2="-0.5" transform="matrix(0.306595 -0.95184 0.951502 0.307643 250.361 293.09)" stroke="#979797"/>
<line y1="-0.5" x2="41.9201" y2="-0.5" transform="matrix(0.306595 -0.95184 0.951502 0.307643 255.671 294.807)" stroke="#979797"/>
<line y1="-0.5" x2="41.9201" y2="-0.5" transform="matrix(0.306595 -0.95184 0.951502 0.307643 260.984 296.524)" stroke="#979797"/>
<line y1="-0.5" x2="41.9201" y2="-0.5" transform="matrix(0.306595 -0.95184 0.951502 0.307643 266.297 298.245)" stroke="#979797"/>
<line y1="-0.5" x2="41.9201" y2="-0.5" transform="matrix(0.306595 -0.95184 0.951502 0.307643 271.615 299.962)" stroke="#979797"/>
<line y1="-0.5" x2="41.9201" y2="-0.5" transform="matrix(0.306595 -0.95184 0.951502 0.307643 276.927 301.679)" stroke="#979797"/>
<line y1="-0.5" x2="41.9201" y2="-0.5" transform="matrix(0.306595 -0.95184 0.951502 0.307643 282.232 303.397)" stroke="#979797"/>
<line y1="-0.5" x2="41.9201" y2="-0.5" transform="matrix(0.306595 -0.95184 0.951502 0.307643 287.553 305.114)" stroke="#979797"/>
<line y1="-0.5" x2="41.9201" y2="-0.5" transform="matrix(0.306595 -0.95184 0.951502 0.307643 292.866 306.831)" stroke="#979797"/>
<path d="M265.967 232.601C260.172 215.795 252.115 209.301 248.811 208.155V180.654C272.067 186.384 281.598 193.641 291.51 225.726C299.44 251.393 289.477 289.513 283.885 303.645L265.967 297.534C270.542 282.256 273.211 253.609 265.967 232.601Z" fill="white"/>
<path d="M254.532 298.297C255.447 295.852 262.538 297.278 265.969 298.297L285.412 304.408C282.871 311.538 277.254 325.721 275.119 325.416C272.984 325.11 274.229 323.251 275.119 322.36C274.356 322.997 272.45 324.194 270.925 323.888C269.4 323.583 269.527 321.724 269.781 320.832C269.4 321.342 268.104 322.36 265.969 322.36C263.834 322.36 264.317 319.814 264.825 318.541C263.3 319.559 260.022 320.985 259.107 318.541C258.192 316.096 261.267 307.336 262.919 303.262C259.742 302.626 253.617 300.741 254.532 298.297Z" fill="#ECD2B4"/>
<path fill-rule="evenodd" clip-rule="evenodd" d="M156.472 321.137L148.927 399.002C137.871 403.967 89.0719 410.843 92.8843 396.328C95.7031 385.597 113.067 381.651 123.307 380.813L108.198 306.171L229.458 309.588L200.147 375.858C212.871 378.322 235.284 385.409 223.139 394.043C210.995 402.678 185.547 397.852 174.342 394.359L173.869 321.025L156.472 321.137Z" fill="#2A2E35"/>
</svg>
