<svg width="150" height="150" viewBox="0 0 150 150" fill="none" xmlns="http://www.w3.org/2000/svg">
<path d="M67.586 7.50307C72.0866 2.76105 75 0 75 0C76.0207 3.40238 77.1896 6.64107 78.4798 9.73383C86.0883 27.9727 97.915 41.1355 108.445 52.8554C120.73 66.5279 131.25 78.2367 131.25 93.75C131.25 124.816 106.066 150 75 150C43.934 150 18.75 124.816 18.75 93.75C18.75 62.5126 52.3105 23.5977 67.586 7.50307ZM71.4691 17.0745C66.5669 22.3888 60.4346 29.4142 54.3211 37.4058C47.5082 46.3116 40.8586 56.2359 35.9459 66.1897C30.9825 76.2462 28.125 85.6696 28.125 93.75C28.125 93.75 51.5625 107.812 75 98.4375C98.4375 89.0625 121.875 93.75 121.875 93.75C121.875 82.4884 114.415 73.527 101.425 59.0691L101.148 58.7612C91.3955 47.9075 79.6829 34.8725 71.4691 17.0745Z" fill="black"/>
<path d="M42.6824 72.9037C50.377 57.5145 58.7837 47.0872 62.3104 43.5604L68.9396 50.1896C66.2163 52.9128 58.373 62.4855 51.0676 77.0963L42.6824 72.9037Z" fill="black"/>
</svg>
