<svg width="150" height="150" viewBox="0 0 150 150" fill="none" xmlns="http://www.w3.org/2000/svg">
<path d="M0 103.625C0 103.349 0.223858 103.125 0.5 103.125H27.625C27.9011 103.125 28.125 103.349 28.125 103.625V130.75C28.125 131.026 27.9011 131.25 27.625 131.25H0.500001C0.223858 131.25 0 131.026 0 130.75V103.625Z" fill="black"/>
<path d="M37.5 75.5C37.5 75.2239 37.7239 75 38 75H65.125C65.4011 75 65.625 75.2239 65.625 75.5V130.75C65.625 131.026 65.4011 131.25 65.125 131.25H38C37.7239 131.25 37.5 131.026 37.5 130.75V75.5Z" fill="black"/>
<path d="M75 47.375C75 47.0989 75.2239 46.875 75.5 46.875H102.625C102.901 46.875 103.125 47.0989 103.125 47.375V130.75C103.125 131.026 102.901 131.25 102.625 131.25H75.5C75.2239 131.25 75 131.026 75 130.75V47.375Z" fill="black"/>
<path d="M112.5 19.25C112.5 18.9739 112.724 18.75 113 18.75H140.125C140.401 18.75 140.625 18.9739 140.625 19.25V130.75C140.625 131.026 140.401 131.25 140.125 131.25H113C112.724 131.25 112.5 131.026 112.5 130.75V19.25Z" fill="black"/>
</svg>
