<svg width="120" height="150" viewBox="0 0 120 150" fill="none" xmlns="http://www.w3.org/2000/svg">
<path d="M60 10C32.3858 10 10 32.3858 10 60V70H20C25.5228 70 30 74.4771 30 80V110C30 115.523 25.5228 120 20 120H10C4.47715 120 0 115.523 0 110V60C0 26.8629 26.8629 0 60 0C93.1371 0 120 26.8629 120 60V120C120 133.807 108.807 145 95 145H73.6622C71.9331 147.989 68.7014 150 65 150H55C49.4772 150 45 145.523 45 140C45 134.477 49.4772 130 55 130H65C68.7014 130 71.9331 132.011 73.6622 135H95C103.284 135 110 128.284 110 120H100C94.4771 120 90 115.523 90 110V80C90 74.4771 94.4772 70 100 70H110V60C110 32.3858 87.6142 10 60 10Z" fill="black"/>
</svg>
