<svg width="207" height="150" viewBox="0 0 207 150" fill="none" xmlns="http://www.w3.org/2000/svg">
<path d="M39.4205 11.0311C4.09141 46.3601 4.09141 103.64 39.4205 138.969C41.944 141.492 41.944 145.584 39.4205 148.107C36.897 150.631 32.8056 150.631 30.2821 148.107C-10.094 107.731 -10.094 42.2687 30.2821 1.89263C32.8056 -0.630877 36.897 -0.630876 39.4205 1.89263C41.944 4.41614 41.944 8.50754 39.4205 11.0311ZM66.8358 38.4463C46.6477 58.6344 46.6477 91.3657 66.8358 111.554C69.3593 114.077 69.3593 118.169 66.8358 120.692C64.3122 123.216 60.2208 123.216 57.6973 120.692C32.4623 95.4571 32.4623 54.543 57.6973 29.3079C60.2208 26.7844 64.3122 26.7844 66.8358 29.3079C69.3593 31.8314 69.3593 35.9228 66.8358 38.4463ZM139.943 29.3079C142.467 26.7844 146.558 26.7844 149.082 29.3079C174.317 54.543 174.317 95.4571 149.082 120.692C146.558 123.216 142.467 123.216 139.943 120.692C137.42 118.169 137.42 114.077 139.943 111.554C160.131 91.3657 160.131 58.6344 139.943 38.4463C137.42 35.9228 137.42 31.8314 139.943 29.3079ZM167.358 1.89263C169.882 -0.630873 173.973 -0.630877 176.497 1.89263C216.873 42.2687 216.873 107.731 176.497 148.107C173.973 150.631 169.882 150.631 167.358 148.107C164.835 145.584 164.835 141.492 167.358 138.969C202.687 103.64 202.687 46.3601 167.358 11.0311C164.835 8.50754 164.835 4.41613 167.358 1.89263Z" fill="black"/>
<path d="M129.237 75C129.237 89.2751 117.665 100.847 103.39 100.847C89.1147 100.847 77.5424 89.2751 77.5424 75C77.5424 60.7249 89.1147 49.1526 103.39 49.1526C117.665 49.1526 129.237 60.7249 129.237 75Z" fill="black"/>
</svg>
