<svg width="150" height="150" viewBox="0 0 150 150" fill="none" xmlns="http://www.w3.org/2000/svg">
<path d="M18.75 28.125C18.75 30.7138 20.8487 32.8125 23.4375 32.8125H126.562C129.151 32.8125 131.25 30.7138 131.25 28.125C131.25 25.5362 129.151 23.4375 126.562 23.4375H23.4375C20.8487 23.4375 18.75 25.5362 18.75 28.125Z" fill="black"/>
<path d="M37.5 9.375C37.5 11.9638 39.5987 14.0625 42.1875 14.0625H107.812C110.401 14.0625 112.5 11.9638 112.5 9.375C112.5 6.78617 110.401 4.6875 107.812 4.6875H42.1875C39.5987 4.6875 37.5 6.78617 37.5 9.375Z" fill="black"/>
<path d="M63.4219 61.65C61.9769 60.7469 60.1556 60.6991 58.6651 61.5251C57.1747 62.3512 56.25 63.921 56.25 65.625V112.5C56.25 114.204 57.1747 115.774 58.6651 116.6C60.1556 117.426 61.9769 117.378 63.4219 116.475L100.922 93.0375C102.292 92.1809 103.125 90.6787 103.125 89.0625C103.125 87.4463 102.292 85.9441 100.922 85.0875L63.4219 61.65Z" fill="black"/>
<path d="M14.0625 135.938C6.296 135.938 0 129.642 0 121.875V56.25C0 48.4835 6.296 42.1875 14.0625 42.1875H135.938C143.704 42.1875 150 48.4835 150 56.25V121.875C150 129.642 143.704 135.938 135.938 135.938H14.0625ZM135.938 126.562C138.526 126.562 140.625 124.464 140.625 121.875V56.25C140.625 53.6612 138.526 51.5625 135.938 51.5625H14.0625C11.4737 51.5625 9.375 53.6612 9.375 56.25V121.875C9.375 124.464 11.4737 126.562 14.0625 126.562H135.938Z" fill="black"/>
</svg>
