<svg xmlns="http://www.w3.org/2000/svg" viewBox="0 0 173.12 173.12"><defs><style>.cls-1{fill:#820000;}</style></defs><g id="Layer_2" data-name="Layer 2"><g id="Layer_2-2" data-name="Layer 2"><path class="cls-1" d="M86.56,0a86.56,86.56,0,1,0,86.56,86.56A86.57,86.57,0,0,0,86.56,0Zm39,125.29a8.48,8.48,0,0,1-12,0L86.6,98.58,59.85,125.5a8.5,8.5,0,1,1-12.05-12L74.54,86.6,47.62,59.85a8.5,8.5,0,0,1,12-12.05L86.52,74.54l26.75-26.92a8.5,8.5,0,0,1,12,12L98.58,86.52l26.92,26.75A8.51,8.51,0,0,1,125.53,125.29Z"/></g></g></svg>