<svg xmlns="http://www.w3.org/2000/svg" viewBox="0 0 31.09 31.17"><defs><style>.cls-1{isolation:isolate;}.cls-2{opacity:0.6;mix-blend-mode:multiply;}.cls-3{fill:#94a3c0;}</style></defs><g class="cls-1"><g id="Layer_2" data-name="Layer 2"><g id="Camada_1" data-name="Camada 1"><g class="cls-2"><path class="cls-3" d="M21.42,17.53a2.55,2.55,0,0,0-2.2-.49c-.57.23-.94,1.13-1.31,1.59a.55.55,0,0,1-.71.15,10,10,0,0,1-5-4.27.61.61,0,0,1,.07-.83,3.38,3.38,0,0,0,.91-1.47,3.13,3.13,0,0,0-.41-1.74,4.12,4.12,0,0,0-1.28-1.94,1.76,1.76,0,0,0-1.91.29,3.87,3.87,0,0,0-1.35,3.07,4.62,4.62,0,0,0,.13,1A7.87,7.87,0,0,0,9.31,15c.3.51.63,1,1,1.49a15.09,15.09,0,0,0,4.23,3.93,12.88,12.88,0,0,0,2.65,1.26,5.88,5.88,0,0,0,3.07.48A3.7,3.7,0,0,0,23,20.11a1.77,1.77,0,0,0,.13-1.06C23,18.32,22,17.89,21.42,17.53Z"/></g><path class="cls-3" d="M21.42,17.53a2.55,2.55,0,0,0-2.2-.49c-.57.23-.94,1.13-1.31,1.59a.55.55,0,0,1-.71.15,10,10,0,0,1-5-4.27.61.61,0,0,1,.07-.83,3.38,3.38,0,0,0,.91-1.47,3.13,3.13,0,0,0-.41-1.74,4.12,4.12,0,0,0-1.28-1.94,1.76,1.76,0,0,0-1.91.29,3.87,3.87,0,0,0-1.35,3.07,4.62,4.62,0,0,0,.13,1A7.87,7.87,0,0,0,9.31,15c.3.51.63,1,1,1.49a15.09,15.09,0,0,0,4.23,3.93,12.88,12.88,0,0,0,2.65,1.26,5.88,5.88,0,0,0,3.07.48A3.7,3.7,0,0,0,23,20.11a1.77,1.77,0,0,0,.13-1.06C23,18.32,22,17.89,21.42,17.53Z"/><path class="cls-3" d="M15.7,0A15.37,15.37,0,0,0,2.23,22.83L0,31.17l8.38-2.25A15.39,15.39,0,1,0,15.7,0Zm0,27.88a12.45,12.45,0,0,1-6.38-1.77L8.8,25.8,4.12,27.05,5.36,22.4,5,21.87a12.47,12.47,0,1,1,10.66,6Z"/><path class="cls-3" d="M21.42,17.53a2.55,2.55,0,0,0-2.2-.49c-.57.23-.94,1.13-1.31,1.59a.55.55,0,0,1-.71.15,10,10,0,0,1-5-4.27.61.61,0,0,1,.07-.83,3.38,3.38,0,0,0,.91-1.47,3.13,3.13,0,0,0-.41-1.74,4.12,4.12,0,0,0-1.28-1.94,1.76,1.76,0,0,0-1.91.29,3.87,3.87,0,0,0-1.35,3.07,4.62,4.62,0,0,0,.13,1A7.87,7.87,0,0,0,9.31,15c.3.51.63,1,1,1.49a15.09,15.09,0,0,0,4.23,3.93,12.88,12.88,0,0,0,2.65,1.26,5.88,5.88,0,0,0,3.07.48A3.7,3.7,0,0,0,23,20.11a1.77,1.77,0,0,0,.13-1.06C23,18.32,22,17.89,21.42,17.53Z"/><path class="cls-3" d="M15.7,0A15.37,15.37,0,0,0,2.23,22.83L0,31.17l8.38-2.25A15.39,15.39,0,1,0,15.7,0Zm0,27.88a12.45,12.45,0,0,1-6.38-1.77L8.8,25.8,4.12,27.05,5.36,22.4,5,21.87a12.47,12.47,0,1,1,10.66,6Z"/></g></g></g></svg>